<?xml version="1.0" encoding="utf-8"?>
<!-- Generator: Adobe Illustrator 16.0.0, SVG Export Plug-In . SVG Version: 6.00 Build 0)  -->
<!DOCTYPE svg PUBLIC "-//W3C//DTD SVG 1.1//EN" "http://www.w3.org/Graphics/SVG/1.1/DTD/svg11.dtd">
<svg version="1.1" id="Layer_1" xmlns="http://www.w3.org/2000/svg" xmlns:xlink="http://www.w3.org/1999/xlink" x="0px" y="0px"
	 width="87px" height="120px" viewBox="0 0 87 120" enable-background="new 0 0 87 120" xml:space="preserve">
<g>
	<ellipse fill="#FBAE25" cx="47.088" cy="57.459" rx="37.177" ry="30.815"/>
	<path fill-rule="evenodd" clip-rule="evenodd" fill="#522A71" d="M34.331,48.648c0,0.503,0,1.007,0,1.508
		c0.001,0.222,0.012,0.441,0.053,0.66c0.045,0.242,0.073,0.485,0.074,0.731c0.002,0.171,0.007,0.343,0.06,0.51
		c0.02,0.069,0.025,0.145,0.028,0.219c0.007,0.248,0.069,0.485,0.157,0.715c0.16,0.425,0.284,0.859,0.399,1.299
		c0.051,0.188,0.099,0.378,0.146,0.567c0.068,0.274,0.155,0.542,0.254,0.806c0.132,0.344,0.265,0.687,0.396,1.029
		c0.023,0.058,0.045,0.115,0.072,0.169c0.206,0.403,0.39,0.82,0.582,1.229c0.042,0.089,0.091,0.175,0.141,0.259
		c0.109,0.178,0.217,0.355,0.329,0.532c0.361,0.569,0.698,1.152,1.021,1.742c0.135,0.25,0.289,0.484,0.445,0.72
		c0.217,0.327,0.438,0.651,0.659,0.973c0.07,0.102,0.168,0.184,0.223,0.291c0.054,0.111,0.122,0.213,0.185,0.315
		c0.13,0.209,0.307,0.382,0.426,0.598c0.027,0.051,0.076,0.095,0.124,0.134c0.058,0.048,0.094,0.11,0.134,0.173
		c0.059,0.091,0.114,0.195,0.198,0.261c0.121,0.093,0.194,0.214,0.282,0.332c0.182,0.243,0.361,0.496,0.616,0.675
		c0.073,0.051,0.129,0.111,0.169,0.189c0.125,0.243,0.306,0.441,0.516,0.611c0.039,0.03,0.082,0.06,0.109,0.099
		c0.112,0.159,0.219,0.322,0.328,0.486c0.022,0.033-0.018,0.108-0.062,0.111c-0.035,0.005-0.072,0.01-0.109,0.008
		c-0.26-0.012-0.505-0.068-0.751-0.153c-0.23-0.081-0.464-0.153-0.686-0.261c-0.604-0.295-1.219-0.57-1.795-0.922
		c-0.221-0.134-0.452-0.249-0.671-0.382c-0.818-0.494-1.612-1.025-2.393-1.574c-0.413-0.291-0.799-0.61-1.19-0.925
		c-0.307-0.247-0.577-0.53-0.855-0.809c-0.105-0.105-0.186-0.227-0.247-0.362c-0.203-0.434-0.402-0.867-0.61-1.297
		c-0.106-0.221-0.228-0.433-0.34-0.651c-0.074-0.142-0.138-0.287-0.216-0.425c-0.117-0.205-0.2-0.418-0.262-0.646
		c-0.097-0.366-0.2-0.731-0.306-1.097c-0.079-0.269-0.164-0.538-0.248-0.807c-0.131-0.432-0.28-0.861-0.345-1.313
		c-0.133-0.421-0.175-0.863-0.309-1.284c-0.037-0.341-0.183-0.663-0.174-1.012c-0.073-0.299-0.076-0.606-0.096-0.912
		c-0.002-0.072-0.018-0.146-0.035-0.217c-0.062-0.239-0.083-0.483-0.09-0.729c0-0.048,0.002-0.099-0.009-0.147
		c-0.059-0.267-0.041-0.535-0.043-0.806c-0.001-0.246,0.008-0.491-0.002-0.736c-0.017-0.441,0.036-0.88,0.073-1.32
		c0.004-0.06,0.013-0.122,0.026-0.181c0.055-0.239,0.085-0.482,0.11-0.727c0.023-0.218,0.066-0.436,0.112-0.65
		c0.053-0.253,0.12-0.501,0.18-0.75c0.009-0.037,0.02-0.071,0.025-0.108c0.125-0.612,0.276-1.219,0.451-1.816
		c0.035-0.119,0.06-0.239,0.083-0.358c0.082-0.441,0.309-0.825,0.494-1.223c0.277-0.6,0.577-1.191,0.874-1.782
		c0.071-0.143,0.161-0.276,0.25-0.407c0.216-0.313,0.439-0.621,0.653-0.933c0.062-0.09,0.094-0.2,0.159-0.287
		c0.06-0.077,0.142-0.132,0.216-0.196c0.009-0.009,0.017-0.02,0.023-0.03c0.106-0.21,0.273-0.373,0.428-0.545
		c0.066-0.072,0.127-0.153,0.167-0.241c0.085-0.187,0.229-0.317,0.38-0.444c0.572-0.478,1.152-0.949,1.729-1.426
		c0.389-0.321,0.784-0.628,1.209-0.9c0.145-0.092,0.294-0.172,0.455-0.236c0.397-0.16,0.792-0.325,1.19-0.481
		c0.297-0.115,0.596-0.218,0.9-0.313c0.158-0.048,0.315-0.039,0.472-0.067c0.155-0.03,0.308-0.076,0.463-0.109
		c0.06-0.013,0.122-0.008,0.184-0.008c0.624,0,1.252,0.002,1.876,0c0.136,0,0.267,0.014,0.397,0.058
		c0.115,0.038,0.238,0.058,0.361,0.071c0.195,0.022,0.382,0.083,0.565,0.147c0.382,0.133,0.752,0.292,1.129,0.437
		c0.393,0.153,0.748,0.365,1.075,0.625c0.212,0.168,0.43,0.327,0.659,0.469c0.084,0.053,0.165,0.105,0.246,0.162
		c0.19,0.135,0.375,0.277,0.516,0.466c0.051,0.069,0.105,0.141,0.175,0.188c0.215,0.147,0.382,0.345,0.563,0.526
		c0.184,0.18,0.362,0.365,0.54,0.55c0.042,0.042,0.082,0.093,0.104,0.148c0.107,0.276,0.262,0.526,0.409,0.779
		c0.158,0.278,0.299,0.561,0.406,0.862c0.209,0.588,0.428,1.175,0.689,1.745c0.037,0.079,0.058,0.161,0.061,0.246
		c0.007,0.161,0.034,0.316,0.073,0.471c0.044,0.179,0.064,0.363,0.064,0.547c-0.003,0.822,0,1.644-0.003,2.465
		c0,0.086,0.004,0.173-0.015,0.256c-0.072,0.323-0.105,0.653-0.176,0.975c-0.022,0.108-0.047,0.217-0.058,0.326
		c-0.021,0.198-0.073,0.384-0.155,0.563c-0.15,0.339-0.246,0.692-0.313,1.053c-0.013,0.071-0.032,0.147-0.07,0.208
		c-0.139,0.231-0.283,0.456-0.429,0.684c-0.021,0.032-0.041,0.061-0.064,0.09c-0.039,0.046-0.076,0.096-0.123,0.138
		c-0.244,0.221-0.426,0.505-0.709,0.685c-0.133,0.087-0.275,0.161-0.416,0.232c-0.186,0.094-0.379,0.174-0.565,0.268
		c-0.09,0.046-0.179,0.082-0.278,0.082c-0.354,0.005-0.713,0.03-1.065-0.002c-0.353-0.03-0.704-0.083-1.052-0.16
		c-0.047-0.01-0.092-0.031-0.14-0.046c-0.104-0.031-0.212-0.059-0.315-0.093c-0.115-0.038-0.234-0.073-0.345-0.125
		c-0.342-0.162-0.686-0.325-1.022-0.5c-0.283-0.145-0.559-0.306-0.84-0.455c-0.336-0.179-0.632-0.421-0.946-0.632
		c-0.162-0.11-0.298-0.257-0.417-0.411c-0.091-0.118-0.188-0.224-0.307-0.313c-0.097-0.071-0.179-0.163-0.226-0.283
		c-0.031-0.078-0.09-0.147-0.146-0.211c-0.318-0.393-0.572-0.825-0.765-1.292c-0.076-0.18-0.147-0.363-0.172-0.561
		c-0.004-0.037-0.009-0.074-0.023-0.108c-0.105-0.296-0.076-0.604-0.071-0.91c0-0.061,0.009-0.123,0.028-0.182
		c0.083-0.283,0.132-0.572,0.209-0.856c0.098-0.364,0.212-0.727,0.433-1.045c0.18-0.263,0.348-0.536,0.496-0.817
		c0.091-0.171,0.212-0.298,0.368-0.397c0.057-0.036,0.121-0.112,0.192-0.055c0.063,0.053,0.046,0.137,0.035,0.209
		c-0.014,0.085-0.035,0.169-0.051,0.253c-0.015,0.071-0.037,0.144-0.039,0.216c-0.012,0.136-0.032,0.267-0.073,0.396
		c-0.051,0.154-0.067,0.313-0.067,0.472c-0.001,0.369-0.001,0.737,0,1.104c0,0.185,0.022,0.367,0.065,0.546
		c0.018,0.072,0.046,0.145,0.048,0.216c0.003,0.296,0.087,0.582,0.117,0.874c0.026,0.261,0.125,0.496,0.243,0.726
		c0.038,0.076,0.088,0.147,0.129,0.221c0.145,0.26,0.33,0.484,0.567,0.667c0.137,0.104,0.249,0.237,0.366,0.363
		c0.101,0.108,0.208,0.207,0.338,0.281c0.394,0.223,0.788,0.448,1.182,0.671c0.043,0.023,0.089,0.039,0.137,0.053
		c0.353,0.101,0.709,0.181,1.054,0.314c0.142,0.055,0.292,0.048,0.432-0.007c0.127-0.049,0.256-0.085,0.393-0.092
		c0.074-0.002,0.141-0.032,0.205-0.072c0.104-0.064,0.207-0.13,0.315-0.19c0.229-0.126,0.384-0.338,0.584-0.499
		c0.077-0.126,0.158-0.249,0.229-0.377c0.072-0.128,0.141-0.258,0.199-0.393c0.048-0.11,0.087-0.228,0.121-0.345
		c0.108-0.377,0.221-0.752,0.315-1.133c0.068-0.285,0.171-0.563,0.177-0.862c0.087-0.326,0.076-0.653,0.012-0.981
		c-0.023-0.12-0.014-0.246-0.027-0.367c-0.017-0.171-0.032-0.341-0.064-0.51c-0.023-0.121-0.037-0.243-0.035-0.364
		c0.003-0.26-0.039-0.51-0.113-0.759c-0.095-0.308-0.213-0.599-0.388-0.869c-0.118-0.186-0.218-0.384-0.317-0.582
		c-0.101-0.195-0.186-0.401-0.367-0.542c-0.019-0.013-0.037-0.035-0.044-0.058c-0.071-0.193-0.226-0.31-0.377-0.437
		c-0.168-0.143-0.312-0.313-0.464-0.471c-0.043-0.044-0.081-0.092-0.127-0.133c-0.135-0.123-0.299-0.209-0.439-0.327
		c-0.139-0.116-0.313-0.191-0.475-0.278c-0.159-0.089-0.329-0.163-0.504-0.218c-0.06-0.018-0.113-0.046-0.168-0.071
		c-0.315-0.14-0.641-0.245-0.982-0.294c-0.084-0.014-0.166-0.044-0.247-0.067c-0.117-0.037-0.237-0.069-0.36-0.066
		c-0.354,0.003-0.711,0.007-1.065,0.016c-0.099,0.002-0.2,0.011-0.292,0.039c-0.179,0.054-0.36,0.073-0.542,0.083
		c-0.298,0.016-0.579,0.104-0.862,0.182c-0.425,0.12-0.83,0.294-1.229,0.48c-0.209,0.1-0.421,0.198-0.621,0.317
		c-0.284,0.167-0.563,0.345-0.816,0.56c-0.271,0.229-0.547,0.454-0.828,0.672c-0.218,0.17-0.386,0.376-0.498,0.625
		c-0.072,0.164-0.176,0.294-0.323,0.392c-0.104,0.072-0.179,0.166-0.232,0.279c-0.174,0.378-0.386,0.737-0.611,1.087
		c-0.105,0.167-0.194,0.341-0.269,0.523c-0.232,0.566-0.476,1.13-0.692,1.702c-0.117,0.308-0.19,0.632-0.283,0.95
		c-0.126,0.436-0.185,0.885-0.24,1.334c-0.01,0.085-0.023,0.172-0.047,0.253c-0.061,0.202-0.076,0.409-0.074,0.618
		C34.332,47.544,34.331,48.096,34.331,48.648L34.331,48.648z"/>
	<path fill-rule="evenodd" clip-rule="evenodd" fill="#522A71" d="M46.5,115.137c-0.126-0.149-0.221-0.334-0.324-0.514
		c-0.029-0.052-0.048-0.114-0.054-0.175c-0.02-0.224-0.109-0.424-0.197-0.626c-0.031-0.066-0.065-0.131-0.094-0.197
		c-0.048-0.114-0.104-0.226-0.133-0.343c-0.032-0.117-0.037-0.241-0.058-0.361s-0.108-0.222-0.106-0.349
		c0.002-0.102-0.021-0.194-0.056-0.288c-0.043-0.104-0.047-0.215-0.047-0.326c0-0.404-0.003-0.81,0.002-1.214
		c0.001-0.109,0.014-0.222,0.041-0.326c0.035-0.131,0.063-0.261,0.056-0.398c-0.002-0.036-0.002-0.075,0.006-0.109
		c0.033-0.168,0.083-0.334,0.104-0.503c0.023-0.157,0.007-0.318,0.055-0.475c0.035-0.117,0.074-0.233,0.071-0.358
		c0-0.022,0.003-0.051,0.011-0.071c0.163-0.421,0.203-0.883,0.434-1.281c0.056-0.215,0.149-0.413,0.25-0.61
		c0.061-0.119,0.122-0.239,0.193-0.354c0.169-0.283,0.345-0.563,0.52-0.846c0.136-0.219,0.253-0.446,0.365-0.679
		c0.175-0.363,0.363-0.722,0.536-1.089c0.104-0.219,0.229-0.433,0.28-0.674c0.133-0.25,0.214-0.521,0.316-0.782
		c0.139-0.352,0.27-0.708,0.412-1.059c0.07-0.169,0.127-0.344,0.188-0.514c0.012-0.036,0.019-0.073,0.032-0.105
		c0.147-0.324,0.252-0.662,0.378-0.993c0.181-0.467,0.356-0.938,0.538-1.403c0.076-0.194,0.157-0.385,0.244-0.573
		c0.118-0.257,0.187-0.529,0.29-0.791c-0.007-0.238,0.149-0.44,0.15-0.676c0.087-0.192,0.099-0.404,0.168-0.6
		c0.019-0.046,0.04-0.092,0.043-0.142c0.005-0.196,0.022-0.39,0.11-0.571c0.006-0.012,0.009-0.024,0.009-0.036
		c-0.034-0.325,0.141-0.621,0.122-0.943c0-0.012,0-0.022,0.005-0.036c0.093-0.268,0.104-0.55,0.156-0.827
		c0.029-0.155,0.078-0.308,0.075-0.468c0.088-0.271,0.121-0.549,0.136-0.831c0.003-0.085,0.039-0.166,0.056-0.25
		c0.017-0.083,0.034-0.169,0.039-0.254c0.002-0.147,0.021-0.295,0.066-0.435c0.037-0.105,0.047-0.213,0.047-0.324
		c-0.003-0.246,0-0.491-0.001-0.735c-0.005-0.187,0.01-0.37,0.071-0.545c0.041-0.117,0.051-0.238,0.052-0.362
		c0.001-0.208,0.007-0.416,0.013-0.624c0.002-0.1-0.007-0.197-0.055-0.285c-0.037-0.068-0.032-0.14-0.028-0.214
		c0.016-0.246-0.002-0.489-0.041-0.733c-0.045-0.289-0.057-0.585-0.085-0.878c-0.012-0.121-0.03-0.243-0.044-0.364
		c-0.011-0.122-0.022-0.243-0.031-0.366c-0.008-0.195-0.01-0.394-0.02-0.589c-0.004-0.133-0.008-0.27-0.034-0.401
		c-0.055-0.3-0.085-0.605-0.156-0.904c-0.032-0.131-0.025-0.271-0.063-0.397c-0.1-0.356-0.13-0.723-0.203-1.083
		c-0.037-0.192-0.105-0.377-0.166-0.563c-0.141-0.443-0.304-0.879-0.432-1.327c-0.091-0.316-0.207-0.627-0.301-0.944
		c-0.083-0.269-0.155-0.54-0.226-0.812c-0.12-0.45-0.262-0.895-0.417-1.332c-0.121-0.334-0.233-0.67-0.359-1.003
		c-0.089-0.242-0.192-0.477-0.29-0.715c-0.103-0.249-0.204-0.499-0.306-0.747c-0.147-0.366-0.317-0.718-0.494-1.069
		c-0.134-0.261-0.267-0.524-0.396-0.787c-0.028-0.055-0.044-0.114-0.067-0.172c-0.009-0.029,0.023-0.08,0.051-0.088
		c0.099-0.026,0.198-0.026,0.292,0.006c0.105,0.039,0.214,0.039,0.323,0.051c0.208,0.027,0.416,0.046,0.618,0.089
		c0.146,0.032,0.291,0.046,0.438,0.046c0.283,0.002,0.563,0.002,0.847,0.002c0.305-0.002,0.608-0.004,0.915-0.057
		c0.252-0.045,0.511-0.051,0.769-0.076c0.182-0.016,0.364-0.012,0.546-0.06c0.116-0.03,0.243-0.018,0.365-0.021
		c0.138-0.003,0.266-0.031,0.391-0.09c0.155-0.073,0.315-0.136,0.485-0.162c0.158-0.024,0.302-0.1,0.459-0.132
		c0.093-0.018,0.179-0.079,0.258-0.134c0.246-0.168,0.516-0.282,0.791-0.384c0.044-0.016,0.102,0.005,0.129,0.044
		c0.06,0.079,0.097,0.168,0.116,0.266c0.021,0.097,0.047,0.19,0.073,0.286c0.121,0.435,0.259,0.866,0.358,1.308
		c0.063,0.273,0.172,0.54,0.174,0.825c0.09,0.282,0.073,0.586,0.184,0.862c0.007,0.022,0.014,0.048,0.014,0.072
		c0.005,0.247,0.074,0.483,0.129,0.722c0.077,0.335,0.116,0.675,0.212,1.006c0.064,0.221,0.087,0.457,0.129,0.685
		c0.011,0.061,0.009,0.124,0.029,0.182c0.099,0.254,0.098,0.529,0.172,0.789c0.022,0.081,0.026,0.168,0.035,0.254
		c0.043,0.376,0.148,0.746,0.148,1.127c0.064,0.263,0.1,0.531,0.118,0.8c0.104,0.368,0.069,0.756,0.163,1.126
		c0.035,0.13,0.032,0.269,0.035,0.403c0.011,0.452,0.018,0.906,0.026,1.36c0.003,0.185,0.017,0.365,0.036,0.55
		c0.029,0.267,0.037,0.538,0.04,0.807c0.005,0.503,0.002,1.007,0.002,1.508c0,0.147-0.009,0.292-0.059,0.435
		c-0.032,0.09-0.035,0.193-0.036,0.29c-0.007,0.234-0.003,0.466-0.003,0.699c0,0.158-0.003,0.316-0.033,0.477
		c-0.02,0.106-0.015,0.219-0.015,0.327c0,0.209-0.01,0.417-0.042,0.624c-0.032,0.205-0.085,0.408-0.083,0.619
		c0,0.07-0.025,0.145-0.044,0.214c-0.032,0.12-0.057,0.239-0.073,0.359c-0.019,0.133-0.08,0.257-0.104,0.388
		c-0.02,0.12-0.009,0.246-0.055,0.363c-0.042,0.103-0.067,0.208-0.064,0.321c0.002,0.164-0.097,0.305-0.113,0.463
		c-0.016,0.145-0.026,0.289-0.073,0.432c-0.073,0.221-0.154,0.438-0.248,0.651c-0.163,0.367-0.304,0.743-0.396,1.138
		c-0.058,0.248-0.141,0.494-0.239,0.73c-0.097,0.226-0.22,0.437-0.343,0.648c-0.419,0.72-0.827,1.446-1.206,2.188
		c-0.224,0.438-0.487,0.849-0.759,1.258c-0.281,0.431-0.561,0.86-0.846,1.288c-0.074,0.112-0.156,0.218-0.236,0.328
		c-0.189,0.255-0.382,0.508-0.573,0.764c-0.079,0.108-0.154,0.222-0.234,0.329c-0.357,0.482-0.724,0.958-1.073,1.446
		c-0.365,0.506-0.75,0.999-1.104,1.514c-0.325,0.474-0.667,0.938-1.001,1.407c-0.015,0.02-0.029,0.039-0.04,0.061
		c-0.334,0.586-0.666,1.171-0.994,1.757c-0.13,0.235-0.257,0.476-0.37,0.719c-0.08,0.166-0.12,0.349-0.204,0.512
		c-0.071,0.133-0.074,0.281-0.126,0.418c-0.049,0.128-0.085,0.255-0.085,0.392c0,0.049-0.01,0.101-0.027,0.145
		c-0.086,0.218-0.078,0.458-0.173,0.676c-0.027,0.063-0.024,0.143-0.024,0.216c-0.001,0.944-0.001,1.89-0.001,2.833
		c0,0.061-0.01,0.131,0.017,0.182c0.115,0.224,0.089,0.479,0.172,0.711c0.044,0.129,0.056,0.264,0.034,0.4
		c-0.002,0.019-0.026,0.044-0.044,0.049C46.709,115.167,46.613,115.167,46.5,115.137z"/>
	<path fill-rule="evenodd" clip-rule="evenodd" fill="#522A71" d="M63.927,37.803c-0.032,0.414-0.012,0.756-0.081,1.097
		c-0.018,0.096-0.014,0.195-0.016,0.294c-0.008,0.637-0.019,1.273-0.023,1.912c-0.002,0.208-0.003,0.417-0.043,0.622
		c-0.058,0.278-0.067,0.56-0.078,0.843c-0.009,0.183-0.004,0.368-0.076,0.543c-0.025,0.329-0.139,0.646-0.156,0.978
		c-0.002,0.049-0.013,0.097-0.023,0.144c-0.066,0.299-0.121,0.603-0.206,0.895c-0.106,0.365-0.178,0.738-0.278,1.103
		c-0.021,0.07-0.048,0.14-0.055,0.213c-0.042,0.58-0.238,1.124-0.412,1.672c-0.064,0.209-0.17,0.405-0.255,0.609
		c-0.154,0.374-0.309,0.747-0.46,1.122c-0.027,0.068-0.047,0.138-0.069,0.208c-0.165,0.528-0.404,1.024-0.634,1.525
		c-0.021,0.043-0.047,0.087-0.071,0.13c-0.317,0.552-0.629,1.105-0.953,1.654c-0.269,0.452-0.551,0.896-0.832,1.34
		c-0.059,0.096-0.089,0.203-0.146,0.295c-0.058,0.091-0.153,0.155-0.224,0.24c-0.153,0.192-0.3,0.386-0.447,0.583
		c-0.044,0.059-0.069,0.13-0.11,0.189c-0.042,0.06-0.084,0.13-0.145,0.164c-0.177,0.094-0.315,0.232-0.448,0.375
		c-0.175,0.183-0.412,0.262-0.624,0.379c-0.04,0.023-0.096,0.021-0.144,0.027c-0.097,0.015-0.193,0.031-0.29,0.039
		c-0.262,0.021-0.494,0.138-0.731,0.233c-0.35,0.142-0.696,0.298-1.04,0.462c-0.439,0.213-0.874,0.439-1.313,0.654
		c-0.122,0.06-0.236,0.128-0.347,0.207c-0.267,0.193-0.535,0.389-0.81,0.572c-0.467,0.314-0.94,0.621-1.411,0.929
		c-0.039,0.025-0.09,0.034-0.136,0.048c-0.007,0.003-0.023-0.012-0.026-0.021c-0.004-0.01-0.001-0.026,0.005-0.035
		c0.096-0.17,0.196-0.338,0.332-0.479c0.094-0.096,0.179-0.202,0.254-0.313c0.081-0.121,0.148-0.252,0.261-0.352
		c0.063-0.054,0.097-0.14,0.138-0.216c0.241-0.454,0.48-0.908,0.725-1.363c0.177-0.336,0.356-0.669,0.538-1.003
		c0.057-0.107,0.107-0.218,0.146-0.335c0.136-0.42,0.279-0.836,0.416-1.255c0.226-0.686,0.421-1.382,0.696-2.05
		c0.08-0.192,0.159-0.385,0.22-0.583c0.057-0.188,0.094-0.381,0.133-0.572c0.034-0.156,0.062-0.313,0.091-0.469
		c0.003-0.025,0.012-0.048,0.015-0.071c0.025-0.396,0.147-0.769,0.221-1.153c0.066-0.337,0.158-0.667,0.229-1.001
		c0.043-0.205,0.076-0.41,0.074-0.62c-0.003-0.16-0.002-0.318,0-0.479c0.002-0.085,0-0.172,0.018-0.255
		c0.046-0.205,0.063-0.412,0.074-0.621c0.002-0.06,0.002-0.124,0.021-0.182c0.071-0.237,0.073-0.483,0.085-0.729
		c0.016-0.267,0.012-0.541,0.048-0.807c0.069-0.501,0.058-1.002,0.061-1.503c0-0.491,0-0.982,0-1.471
		c0-0.197-0.005-0.391-0.051-0.585c-0.025-0.106-0.03-0.217-0.039-0.327c-0.023-0.258-0.032-0.515-0.104-0.763
		c-0.017-0.06-0.015-0.122-0.019-0.184c-0.019-0.218-0.037-0.439-0.053-0.659c-0.006-0.072,0.055-0.15,0.125-0.156
		c0.123-0.006,0.245-0.01,0.368-0.01c0.196-0.001,0.392,0,0.584-0.048c0.035-0.008,0.073-0.016,0.108-0.016
		c0.309,0.009,0.607-0.073,0.913-0.094c0.022-0.002,0.048-0.004,0.071-0.007c0.211-0.004,0.391-0.14,0.606-0.14
		c0.211,0.002,0.402-0.093,0.597-0.168c0.203-0.078,0.415-0.146,0.622-0.221c0.286-0.104,0.571-0.209,0.865-0.294
		c0.128-0.037,0.249-0.101,0.364-0.17c0.283-0.172,0.563-0.348,0.816-0.563c0.234-0.2,0.484-0.375,0.741-0.542
		c0.081-0.054,0.154-0.114,0.215-0.196c0.058-0.076,0.134-0.14,0.204-0.208c0.2-0.197,0.402-0.395,0.604-0.592
		c0.033-0.034,0.065-0.076,0.104-0.101c0.136-0.092,0.237-0.211,0.337-0.336c0.022-0.028,0.059-0.042,0.09-0.061
		c0.024-0.015,0.089,0.008,0.097,0.033c0.011,0.033,0.024,0.069,0.026,0.104c0.006,0.159,0.009,0.318,0.014,0.479
		c0.01,0.221,0.027,0.439,0.057,0.657C63.917,37.283,63.913,37.58,63.927,37.803z"/>
	<path fill-rule="evenodd" clip-rule="evenodd" fill="#522A71" d="M49.931,87.13c0,0.185,0,0.368,0,0.552
		c0,0.123-0.002,0.245-0.054,0.362c-0.04,0.092-0.035,0.19-0.035,0.288c-0.002,0.295-0.002,0.589-0.002,0.883c0,0.54,0,1.08,0,1.621
		c0,0.146-0.002,0.292-0.039,0.437c-0.022,0.094-0.024,0.194-0.021,0.292c0.003,0.271-0.021,0.538-0.067,0.805
		c-0.027,0.156-0.065,0.313-0.063,0.473c0,0.061-0.014,0.125-0.037,0.18c-0.053,0.127-0.075,0.258-0.071,0.395
		c0.003,0.023,0,0.049-0.007,0.072c-0.066,0.25-0.11,0.501-0.151,0.756c-0.024,0.146-0.083,0.283-0.074,0.432
		c0,0.038-0.009,0.074-0.02,0.109c-0.067,0.186-0.106,0.375-0.108,0.573c0,0.048-0.021,0.095-0.037,0.143
		c-0.012,0.034-0.032,0.065-0.04,0.102c-0.041,0.153-0.058,0.31-0.113,0.463c-0.049,0.135-0.088,0.277-0.132,0.417
		c-0.04,0.127-0.039,0.266-0.104,0.389c-0.032,0.23-0.135,0.439-0.213,0.658c-0.074,0.207-0.161,0.409-0.237,0.616
		c-0.083,0.216-0.164,0.432-0.253,0.648c-0.138,0.328-0.305,0.642-0.45,0.965c-0.264,0.582-0.568,1.142-0.856,1.71
		c-0.178,0.348-0.384,0.684-0.577,1.021c-0.055,0.096-0.116,0.188-0.165,0.287c-0.129,0.253-0.296,0.479-0.475,0.697
		c-0.256,0.313-0.519,0.621-0.777,0.93c-0.173,0.21-0.341,0.419-0.511,0.628c-0.241,0.295-0.479,0.591-0.722,0.885
		c-0.061,0.076-0.128,0.147-0.196,0.216c-0.313,0.311-0.627,0.623-0.947,0.928c-0.141,0.137-0.29,0.264-0.441,0.388
		c-0.274,0.226-0.552,0.448-0.828,0.671c-0.023,0.019-0.049,0.014-0.063-0.008c-0.004-0.008-0.007-0.025-0.002-0.033
		c0.022-0.044,0.041-0.09,0.072-0.129c0.234-0.299,0.406-0.639,0.607-0.959c0.159-0.248,0.316-0.496,0.472-0.747
		c0.153-0.25,0.311-0.498,0.452-0.756c0.283-0.515,0.562-1.032,0.833-1.554c0.214-0.412,0.385-0.845,0.567-1.271
		c0.046-0.115,0.095-0.227,0.146-0.339c0.099-0.225,0.211-0.442,0.294-0.67c0.078-0.22,0.209-0.417,0.258-0.648
		c0.218-0.425,0.321-0.896,0.523-1.329c0.064-0.142,0.084-0.306,0.127-0.457c0.051-0.188,0.132-0.368,0.153-0.565
		c0.015-0.119,0.069-0.234,0.106-0.35c0.112-0.35,0.179-0.71,0.308-1.053c0.021-0.056,0.025-0.119,0.037-0.179
		c0.029-0.168,0.065-0.336,0.092-0.506c0.014-0.097,0.024-0.194,0.022-0.292c-0.004-0.294,0.019-0.586,0.095-0.875
		c0.046-0.176,0.052-0.362,0.125-0.534c0.018-0.041,0.014-0.097,0.014-0.146c0-0.111,0.02-0.218,0.069-0.32
		c0.043-0.091,0.053-0.188,0.052-0.287c-0.005-0.258,0.037-0.512,0.08-0.766c0.018-0.097,0.028-0.194,0.025-0.292
		c-0.002-0.308,0.032-0.611,0.099-0.912c0.019-0.094,0.024-0.193,0.024-0.292c0.001-0.219,0.006-0.44,0.038-0.66
		c0.017-0.108,0.019-0.22,0.019-0.329c0.003-0.393,0.002-0.786,0.002-1.178c0-0.074,0.001-0.148-0.008-0.22
		c-0.039-0.306-0.057-0.611-0.05-0.918c0.005-0.151-0.032-0.295-0.126-0.415c-0.073-0.092-0.112-0.195-0.102-0.306
		c0.028-0.271-0.006-0.535-0.042-0.802c-0.013-0.097-0.018-0.197-0.013-0.295c0.013-0.321-0.062-0.632-0.138-0.942
		c-0.084-0.345-0.173-0.688-0.256-1.032c-0.03-0.131-0.053-0.266-0.075-0.397c-0.016-0.071-0.021-0.147-0.044-0.216
		c-0.051-0.154-0.066-0.311-0.079-0.471c-0.006-0.098-0.026-0.193-0.04-0.29c-0.022-0.134-0.05-0.265-0.063-0.4
		c-0.03-0.281-0.104-0.552-0.195-0.819c-0.105-0.3-0.195-0.605-0.297-0.907c-0.106-0.313-0.218-0.624-0.337-0.933
		c-0.229-0.607-0.463-1.213-0.695-1.818c-0.19-0.489-0.384-0.981-0.576-1.472c-0.046-0.112-0.096-0.225-0.156-0.331
		c-0.26-0.445-0.467-0.918-0.707-1.374c-0.144-0.27-0.291-0.538-0.44-0.805c-0.195-0.34-0.404-0.674-0.591-1.016
		c-0.226-0.409-0.491-0.792-0.74-1.186c-0.25-0.392-0.503-0.782-0.768-1.166c-0.255-0.375-0.52-0.744-0.792-1.106
		c-0.116-0.156-0.204-0.338-0.369-0.455c-0.083-0.147-0.166-0.296-0.247-0.445c-0.003-0.007,0.001-0.03,0.008-0.032
		c0.021-0.01,0.047-0.023,0.065-0.016c0.067,0.029,0.132,0.062,0.195,0.1c0.188,0.116,0.376,0.23,0.558,0.354
		c0.306,0.21,0.63,0.38,0.966,0.524c0.328,0.141,0.636,0.316,0.943,0.494c0.076,0.043,0.149,0.085,0.223,0.131
		c0.221,0.137,0.46,0.22,0.711,0.285c0.414,0.108,0.829,0.218,1.232,0.357c0.175,0.062,0.345,0.13,0.515,0.196
		c0.138,0.051,0.273,0.11,0.414,0.148c0.129,0.035,0.264,0.038,0.397,0.075c0.163,0.048,0.337,0.054,0.51,0.053
		c0.146,0,0.295,0.003,0.441,0.01c0.106,0.005,0.182,0.062,0.228,0.159c0.017,0.033,0.037,0.064,0.051,0.098
		c0.145,0.402,0.335,0.788,0.46,1.2c0.187,0.61,0.418,1.203,0.644,1.8c0.202,0.538,0.4,1.079,0.598,1.62
		c0.129,0.356,0.251,0.716,0.384,1.071c0.058,0.151,0.078,0.308,0.118,0.462c0.104,0.402,0.208,0.806,0.314,1.207
		c0.107,0.416,0.204,0.832,0.257,1.26c0.068,0.2,0.071,0.409,0.095,0.616c0.008,0.071,0.027,0.145,0.048,0.216
		c0.039,0.129,0.062,0.261,0.071,0.396c0.011,0.098,0.033,0.193,0.049,0.289c0.016,0.097,0.034,0.193,0.046,0.29
		c0.017,0.158,0.028,0.319,0.085,0.469c0.012,0.034,0.025,0.072,0.025,0.108c0.007,0.294,0.086,0.581,0.123,0.873
		c0.021,0.169,0.035,0.341,0.091,0.504c0.023,0.332,0.099,0.653,0.149,0.98c0.016,0.097,0.014,0.196,0.018,0.293
		c0.009,0.172,0.02,0.342,0.055,0.513c0.028,0.143,0.031,0.292,0.034,0.438C49.935,86.836,49.93,86.983,49.931,87.13L49.931,87.13z"
		/>
	<path fill-rule="evenodd" clip-rule="evenodd" fill="#522A71" d="M53.194,71.725c-0.032-0.017-0.07-0.05-0.095-0.042
		c-0.216,0.061-0.437,0.058-0.655,0.071c-0.085,0.007-0.17,0.021-0.255,0.032c-0.122,0.017-0.243,0.032-0.364,0.048
		c-0.244,0.026-0.486,0.061-0.729,0.076c-0.195,0.014-0.396,0.028-0.589,0.005c-0.377-0.046-0.756-0.063-1.136-0.089
		c-0.136-0.009-0.267-0.034-0.399-0.047c-0.147-0.014-0.295-0.025-0.441-0.031c-0.208-0.009-0.415-0.018-0.614-0.093
		c-0.067-0.025-0.143-0.037-0.216-0.042c-0.219-0.02-0.43-0.102-0.652-0.098c-0.023,0-0.049-0.008-0.071-0.018
		c-0.193-0.089-0.402-0.096-0.606-0.132c-0.313-0.054-0.633-0.084-0.935-0.194c-0.079-0.031-0.158-0.059-0.241-0.088
		c-0.3-0.104-0.598-0.21-0.898-0.313c-0.255-0.088-0.509-0.175-0.766-0.255c-0.421-0.133-0.83-0.292-1.26-0.401
		c-0.058-0.014-0.112-0.045-0.168-0.07c-0.399-0.184-0.796-0.377-1.186-0.585c-0.258-0.139-0.522-0.271-0.784-0.402
		c-0.253-0.128-0.494-0.27-0.731-0.427c-0.264-0.174-0.536-0.341-0.804-0.512c-0.258-0.167-0.497-0.359-0.733-0.555
		c-0.523-0.423-1.048-0.848-1.572-1.272c-0.029-0.023-0.053-0.053-0.085-0.069c-0.313-0.163-0.519-0.444-0.766-0.679
		c-0.081-0.075-0.142-0.168-0.198-0.262c-0.121-0.201-0.261-0.387-0.441-0.538c-0.038-0.031-0.073-0.066-0.1-0.106
		c-0.176-0.269-0.39-0.503-0.619-0.724c-0.046-0.043-0.077-0.092-0.104-0.149c-0.03-0.065-0.07-0.128-0.115-0.186
		c-0.207-0.273-0.65-0.936-0.808-1.221c-0.011-0.02-0.011-0.053-0.001-0.071c0.009-0.017,0.046-0.039,0.055-0.034
		c0.053,0.03,0.106,0.062,0.148,0.103c0.259,0.262,0.516,0.524,0.773,0.786c0.078,0.078,0.156,0.158,0.244,0.226
		c0.354,0.282,0.702,0.571,1.051,0.862c0.378,0.313,0.791,0.579,1.204,0.84c0.559,0.354,1.129,0.688,1.692,1.037
		c0.376,0.233,0.768,0.433,1.172,0.609c0.225,0.099,0.445,0.205,0.669,0.302c0.213,0.092,0.428,0.182,0.646,0.262
		c0.446,0.171,0.885,0.356,1.308,0.58c0.207,0.106,0.435,0.161,0.659,0.221c0.235,0.062,0.469,0.135,0.702,0.202
		c0.33,0.094,0.648,0.225,0.99,0.273c0.046,0.006,0.092,0.029,0.136,0.051c0.114,0.053,0.232,0.073,0.356,0.082
		c0.207,0.019,0.407,0.09,0.616,0.092c0.035,0,0.071,0.017,0.105,0.03c0.161,0.063,0.329,0.095,0.501,0.104
		c0.084,0.003,0.17,0.023,0.252,0.048c0.131,0.037,0.265,0.054,0.398,0.059c0.33,0.013,0.661,0.029,0.991,0.045
		c0.038,0.003,0.076-0.002,0.111,0.007c0.277,0.069,0.561,0.044,0.84,0.058c0.173,0.01,0.343,0.014,0.509,0.066
		c0.177,0.056,0.36,0.068,0.547,0.068c0.379-0.001,0.76-0.001,1.14,0.001c0.186,0,0.368-0.018,0.543-0.079
		c0.118-0.04,0.239-0.052,0.363-0.053c0.221-0.001,0.441-0.001,0.66-0.004c0.172-0.002,0.344,0.003,0.51-0.062
		c0.033-0.012,0.071-0.013,0.107-0.019c0.171-0.021,0.339-0.051,0.503-0.105c0.159-0.056,0.334-0.063,0.493-0.139
		c0.085-0.041,0.188-0.046,0.285-0.064c0.264-0.048,0.512-0.163,0.775-0.213c0.369-0.164,0.756-0.287,1.115-0.472
		c0.348-0.18,0.693-0.365,1.042-0.545c0.154-0.079,0.294-0.177,0.418-0.296c0.212-0.203,0.419-0.41,0.608-0.636
		c0.181-0.215,0.394-0.403,0.602-0.595c0.063-0.058,0.13-0.109,0.178-0.182c0.123-0.182,0.245-0.365,0.37-0.547
		c0.072-0.104,0.121-0.213,0.132-0.338c0.014-0.177,0.083-0.333,0.179-0.479c0.15-0.228,0.237-0.476,0.295-0.744
		c0.049-0.226,0.12-0.448,0.168-0.676c0.051-0.241,0.06-0.485-0.019-0.726c-0.04-0.128-0.078-0.259-0.113-0.388
		c-0.022-0.082-0.042-0.167-0.055-0.25c-0.074-0.487-0.273-0.912-0.618-1.267c-0.119-0.122-0.237-0.247-0.365-0.36
		c-0.169-0.15-0.363-0.249-0.592-0.275c-0.086-0.01-0.164-0.04-0.245-0.073c-0.112-0.051-0.234-0.067-0.358-0.067
		c-0.367,0-0.735,0-1.103,0c-0.061,0-0.126-0.006-0.184,0.011c-0.247,0.071-0.496,0.126-0.748,0.182
		c-0.096,0.021-0.181,0.069-0.263,0.126c-0.229,0.162-0.464,0.32-0.693,0.483c-0.078,0.056-0.146,0.131-0.224,0.187
		c-0.078,0.059-0.168,0.102-0.244,0.162c-0.303,0.241-0.515,0.557-0.692,0.895c-0.021,0.042-0.024,0.095-0.039,0.141
		c-0.047,0.165-0.079,0.336-0.144,0.494c-0.097,0.232-0.119,0.474-0.117,0.72c0.002,0.319,0,0.639,0,0.956
		c0.002,0.159,0.007,0.319,0.08,0.475c0.134,0.118,0.269,0.242,0.407,0.359c0.074,0.064,0.152,0.124,0.234,0.175
		c0.052,0.032,0.112,0.063,0.17,0.065c0.244,0.016,0.49,0.049,0.727-0.047c0.079-0.031,0.164-0.048,0.248-0.065
		c0.173-0.038,0.315-0.115,0.428-0.261c0.194-0.253,0.418-0.479,0.667-0.681c0.078-0.064,0.136-0.141,0.191-0.223
		c0.222-0.315,0.332-0.681,0.452-1.039c0.098-0.29,0.2-0.579,0.262-0.88c0.007-0.033,0.038-0.061,0.063-0.088
		c0.026-0.037,0.112-0.025,0.126,0.014c0.017,0.044,0.037,0.091,0.041,0.138c0.012,0.161,0.042,0.315,0.088,0.469
		c0.027,0.095,0.037,0.191,0.054,0.289c0.018,0.095,0.026,0.194,0.046,0.291c0.057,0.28,0.063,0.555-0.028,0.832
		c-0.046,0.138-0.088,0.282-0.085,0.432c0,0.153-0.06,0.285-0.143,0.411c-0.06,0.093-0.129,0.18-0.179,0.277
		c-0.061,0.123-0.13,0.231-0.247,0.312c-0.068,0.048-0.117,0.122-0.178,0.184c-0.084,0.089-0.169,0.178-0.255,0.265
		c-0.22,0.226-0.5,0.352-0.787,0.455c-0.173,0.06-0.359,0.083-0.541,0.105c-0.254,0.032-0.508,0.057-0.763,0.113
		c-0.223,0.053-0.46,0.062-0.688-0.027c-0.09-0.035-0.188-0.044-0.285-0.064c-0.183-0.037-0.35-0.108-0.51-0.2
		c-0.257-0.148-0.501-0.311-0.722-0.506c-0.154-0.138-0.315-0.271-0.398-0.472c-0.021-0.057-0.066-0.104-0.104-0.152
		c-0.094-0.13-0.158-0.276-0.206-0.427c-0.076-0.234-0.143-0.47-0.219-0.703c-0.046-0.141-0.069-0.285-0.069-0.434
		c-0.002-0.319,0-0.638,0-0.957c0-0.16,0.023-0.317,0.061-0.474c0.023-0.106,0.046-0.214,0.076-0.319
		c0.016-0.059,0.043-0.115,0.072-0.168c0.054-0.096,0.119-0.187,0.168-0.284c0.046-0.086,0.092-0.176,0.113-0.27
		c0.037-0.17,0.107-0.326,0.202-0.469c0.13-0.207,0.25-0.426,0.409-0.609c0.213-0.251,0.456-0.477,0.688-0.713
		c0.299-0.17,0.551-0.406,0.846-0.582c0.213-0.126,0.437-0.223,0.657-0.326c0.177-0.084,0.362-0.152,0.549-0.214
		c0.138-0.046,0.282-0.074,0.424-0.11c0.13-0.036,0.259-0.081,0.389-0.108c0.095-0.021,0.194-0.03,0.292-0.035
		c0.195-0.007,0.387-0.032,0.581-0.067c0.401-0.07,0.806-0.071,1.206,0.012c0.109,0.023,0.216,0.047,0.326,0.051
		c0.375,0.011,0.724,0.117,1.046,0.304c0.204,0.116,0.431,0.176,0.637,0.279c0.154,0.078,0.308,0.154,0.46,0.234
		c0.052,0.028,0.103,0.067,0.145,0.11c0.136,0.143,0.278,0.278,0.396,0.435c0.112,0.146,0.231,0.282,0.369,0.404
		c0.064,0.054,0.108,0.133,0.147,0.207c0.142,0.258,0.26,0.528,0.377,0.799c0.139,0.318,0.199,0.653,0.251,0.991
		c0.026,0.171,0.052,0.34,0.087,0.507c0.037,0.192,0.043,0.39,0.05,0.587c0.003,0.082-0.027,0.167-0.048,0.249
		c-0.015,0.06-0.051,0.115-0.06,0.174c-0.046,0.276-0.092,0.556-0.129,0.835c-0.018,0.121-0.019,0.244-0.071,0.359
		c-0.019,0.043-0.029,0.093-0.034,0.141c-0.025,0.249-0.12,0.473-0.226,0.695c-0.092,0.2-0.173,0.407-0.24,0.616
		c-0.208,0.648-0.532,1.234-0.928,1.785c-0.115,0.157-0.232,0.313-0.328,0.487c-0.056,0.104-0.147,0.196-0.242,0.271
		c-0.117,0.092-0.219,0.195-0.316,0.306c-0.123,0.135-0.256,0.264-0.385,0.395c-0.017,0.017-0.036,0.032-0.06,0.043
		c-0.229,0.123-0.417,0.3-0.611,0.468c-0.477,0.411-1.007,0.733-1.586,0.981c-0.482,0.209-0.954,0.443-1.432,0.666
		c-0.11,0.051-0.226,0.089-0.343,0.13c-0.335,0.119-0.681,0.199-1.017,0.313c-0.184,0.06-0.382,0.078-0.574,0.107
		c-0.108,0.018-0.221,0.021-0.329,0.032c-0.064,0.006-0.114,0.042-0.156,0.088L53.194,71.725z"/>
	<path fill-rule="evenodd" clip-rule="evenodd" fill="#522A71" d="M53.619,19.896c0.296,0,0.589,0.001,0.884,0
		c0.148-0.002,0.29,0.016,0.434,0.06c0.21,0.064,0.428,0.108,0.642,0.158c0.022,0.006,0.049,0.009,0.072,0.009
		c0.175-0.004,0.339,0.048,0.507,0.078c0.309,0.055,0.579,0.2,0.848,0.345c0.336,0.177,0.637,0.411,0.947,0.629
		c0.081,0.055,0.145,0.131,0.216,0.2c0.106,0.102,0.213,0.202,0.317,0.307c0.295,0.295,0.538,0.633,0.8,0.957
		c0.373,0.592,0.695,1.209,0.938,1.867c0.007,0.023,0.025,0.046,0.021,0.069c-0.01,0.238,0.123,0.446,0.135,0.681
		c0.003,0.071,0.031,0.145,0.056,0.212c0.049,0.127,0.068,0.259,0.066,0.396c-0.003,0.307-0.002,0.614,0,0.919
		c0,0.124-0.012,0.245-0.071,0.356c-0.05,0.089-0.051,0.188-0.052,0.286c0,0.123-0.002,0.245-0.013,0.367
		c-0.005,0.06-0.025,0.12-0.046,0.177c-0.005,0.016-0.032,0.028-0.054,0.036c-0.004,0.002-0.022-0.011-0.024-0.021
		c-0.032-0.092-0.063-0.184-0.094-0.276c-0.015-0.048-0.04-0.094-0.039-0.14c0.004-0.178-0.067-0.336-0.125-0.497
		c-0.177-0.483-0.346-0.966-0.57-1.429c-0.055-0.109-0.09-0.228-0.139-0.339c-0.046-0.099-0.089-0.202-0.15-0.294
		c-0.226-0.333-0.419-0.692-0.702-0.986c-0.051-0.053-0.097-0.111-0.14-0.172c-0.09-0.133-0.204-0.241-0.336-0.335
		c-0.229-0.166-0.432-0.362-0.625-0.565c-0.299-0.313-0.648-0.535-1.068-0.69c-0.104-0.039-0.206-0.08-0.31-0.117
		c-0.128-0.043-0.255-0.085-0.395-0.091c-0.082-0.005-0.167-0.031-0.248-0.056c-0.188-0.06-0.382-0.09-0.579-0.09
		c-0.489,0-0.981-0.007-1.47,0.03c-0.037,0.002-0.075,0-0.109,0.009c-0.356,0.087-0.725,0.13-1.064,0.285
		c-0.142,0.065-0.294,0.117-0.448,0.153c-0.17,0.039-0.321,0.119-0.473,0.199c-0.246,0.137-0.483,0.288-0.695,0.476
		c-0.163,0.147-0.34,0.28-0.464,0.468c-0.034,0.049-0.081,0.095-0.129,0.132c-0.241,0.184-0.377,0.447-0.514,0.706
		c-0.121,0.229-0.225,0.463-0.33,0.696c-0.064,0.145-0.119,0.294-0.179,0.441c-0.062,0.145-0.12,0.292-0.164,0.446
		c-0.039,0.142-0.079,0.28-0.082,0.432c-0.003,0.094-0.03,0.195-0.063,0.285c-0.059,0.152-0.057,0.286,0.067,0.405
		c0.011,0.007,0.017,0.019,0.025,0.026c0.061,0.067,0.09,0.146,0.089,0.236c-0.001,0.085-0.001,0.171,0,0.257
		c0.002,0.331,0.008,0.662,0.006,0.993c-0.003,0.172,0.014,0.345,0.064,0.508c0.117,0.375,0.178,0.763,0.296,1.137
		c0.005,0.011,0.01,0.024,0.011,0.036c0.032,0.3,0.151,0.563,0.318,0.813c0.071,0.11,0.112,0.244,0.149,0.373
		c0.07,0.24,0.216,0.439,0.345,0.648c0.012,0.021,0.025,0.043,0.046,0.053c0.166,0.081,0.234,0.241,0.333,0.381
		c0.098,0.141,0.216,0.267,0.334,0.391c0.194,0.205,0.396,0.402,0.599,0.598c0.086,0.085,0.183,0.163,0.279,0.239
		c0.135,0.106,0.274,0.2,0.4,0.322c0.094,0.092,0.213,0.162,0.333,0.226c0.354,0.193,0.712,0.377,1.071,0.563
		c0.251,0.129,0.51,0.239,0.775,0.335c0.125,0.046,0.248,0.102,0.375,0.145c0.279,0.092,0.56,0.178,0.85,0.23
		c0.048,0.009,0.094,0.025,0.139,0.045c0.229,0.091,0.47,0.134,0.711,0.171c0.086,0.013,0.171,0.021,0.249,0.06
		c0.146,0.076,0.306,0.087,0.465,0.088c0.344,0.001,0.687,0,1.029,0c0.15,0,0.288-0.033,0.431-0.084
		c0.3-0.107,0.59-0.239,0.875-0.379c0.144-0.071,0.277-0.156,0.396-0.263c0.045-0.04,0.088-0.084,0.13-0.13
		c0.114-0.125,0.156-0.308,0.315-0.397c0.108-0.149,0.225-0.292,0.323-0.446c0.092-0.145,0.163-0.301,0.244-0.453
		c0.163-0.301,0.321-0.607,0.487-0.907c0.101-0.183,0.185-0.371,0.248-0.571c0.053-0.163,0.12-0.322,0.172-0.485
		c0.056-0.175,0.1-0.352,0.146-0.531c0.099-0.378,0.198-0.758,0.296-1.137c0.022-0.083,0.036-0.167,0.057-0.249
		c0.011-0.047,0.017-0.106,0.046-0.137c0.105-0.104,0.134-0.229,0.131-0.369c0-0.025,0.003-0.051,0.01-0.074
		c0.101-0.329,0.111-0.676,0.175-1.011c0.017-0.097,0.042-0.193,0.069-0.288c0.004-0.014,0.035-0.034,0.05-0.032
		c0.019,0.004,0.047,0.023,0.052,0.042c0.04,0.129,0.09,0.253,0.144,0.377c0.135,0.299,0.13,0.301,0.131,0.639
		c0,0.207,0.003,0.416,0,0.625c-0.001,0.134-0.003,0.269,0.048,0.398c0.021,0.054,0.028,0.12,0.028,0.181
		c0,0.331,0,0.662-0.012,0.992c-0.005,0.183-0.032,0.364-0.087,0.544c-0.051,0.161-0.071,0.333-0.102,0.503
		c-0.051,0.264-0.112,0.526-0.166,0.788c-0.036,0.17-0.08,0.333-0.133,0.497c-0.135,0.421-0.278,0.835-0.418,1.253
		c-0.012,0.034-0.025,0.07-0.032,0.105c-0.117,0.534-0.361,1.015-0.607,1.494c-0.089,0.174-0.213,0.329-0.322,0.49
		c-0.028,0.042-0.063,0.076-0.089,0.119c-0.115,0.194-0.269,0.343-0.477,0.44c-0.136,0.062-0.238,0.172-0.327,0.292
		c-0.076,0.099-0.172,0.17-0.286,0.223c-0.308,0.149-0.614,0.303-0.919,0.461c-0.188,0.098-0.389,0.146-0.596,0.171
		c-0.146,0.018-0.294,0.02-0.436,0.067c-0.178,0.06-0.359,0.068-0.545,0.066c-0.404-0.002-0.808-0.001-1.212,0
		c-0.124,0-0.242-0.018-0.359-0.063c-0.138-0.053-0.281-0.087-0.425-0.113c-0.338-0.061-0.668-0.157-1.013-0.176
		c-0.086-0.003-0.169-0.015-0.249-0.053c-0.056-0.028-0.114-0.048-0.174-0.064c-0.347-0.087-0.661-0.253-0.979-0.412
		c-0.359-0.18-0.718-0.368-1.1-0.505c-0.205-0.075-0.397-0.181-0.577-0.317c-0.202-0.156-0.427-0.285-0.639-0.432
		c-0.142-0.097-0.278-0.2-0.413-0.306c-0.221-0.172-0.429-0.366-0.668-0.517c-0.06-0.04-0.112-0.093-0.164-0.145
		c-0.224-0.225-0.449-0.453-0.672-0.679c-0.063-0.061-0.108-0.13-0.149-0.206c-0.067-0.118-0.146-0.228-0.23-0.333
		c-0.066-0.087-0.142-0.168-0.194-0.267c-0.01-0.021-0.023-0.044-0.041-0.06c-0.189-0.162-0.293-0.388-0.433-0.587
		c-0.133-0.191-0.244-0.396-0.366-0.594c-0.064-0.105-0.126-0.209-0.197-0.311c-0.115-0.163-0.191-0.345-0.221-0.539
		c-0.03-0.173-0.095-0.325-0.187-0.475c-0.134-0.207-0.235-0.428-0.306-0.667c-0.039-0.129-0.09-0.253-0.134-0.382
		c-0.016-0.046-0.043-0.092-0.043-0.14c-0.01-0.344-0.165-0.666-0.165-1.011c-0.102-0.344-0.079-0.708-0.183-1.051
		c-0.031-0.104-0.027-0.218-0.032-0.329c-0.009-0.257-0.014-0.514-0.022-0.771c-0.003-0.089,0.016-0.171,0.075-0.238
		c0.097-0.108,0.129-0.234,0.129-0.375c0-0.159,0-0.319,0.01-0.478c0.004-0.11,0.007-0.222,0.034-0.327
		c0.034-0.131,0.064-0.26,0.071-0.396c0.005-0.083,0.033-0.169,0.064-0.247c0.088-0.215,0.2-0.42,0.271-0.641
		c0.071-0.223,0.172-0.432,0.269-0.644c0.148-0.322,0.336-0.628,0.545-0.913c0.256-0.345,0.528-0.676,0.794-1.014
		c0.03-0.039,0.061-0.076,0.097-0.11c0.052-0.051,0.103-0.109,0.164-0.146c0.276-0.165,0.472-0.428,0.764-0.571
		c0.429-0.211,0.851-0.437,1.275-0.655c0.065-0.032,0.136-0.058,0.205-0.081c0.487-0.167,0.979-0.315,1.483-0.42
		c0.024-0.006,0.048-0.008,0.071-0.017c0.256-0.105,0.525-0.1,0.797-0.098C53.155,19.897,53.387,19.896,53.619,19.896z"/>
	<path fill-rule="evenodd" clip-rule="evenodd" fill="#522A71" d="M38.217,16.827c-0.158,0.042-0.301,0.078-0.442,0.115
		c-0.048,0.011-0.099,0.016-0.141,0.039c-0.194,0.097-0.401,0.104-0.61,0.104c-0.085,0-0.172,0-0.257-0.002
		c-0.087-0.002-0.17,0.002-0.254,0.032c-0.091,0.032-0.189,0.046-0.284,0.069c-0.301,0.069-0.604,0.104-0.913,0.1
		c-0.193-0.001-0.389,0.022-0.576,0.095c-0.176,0.069-0.362,0.062-0.546,0.044c-0.086-0.009-0.154-0.09-0.154-0.177
		c0-0.037-0.007-0.076,0.003-0.11c0.036-0.124,0.016-0.239-0.037-0.354c-0.029-0.064-0.006-0.124,0.062-0.151
		c0.104-0.043,0.19-0.108,0.275-0.181c0.059-0.047,0.125-0.082,0.201-0.084c0.142,0,0.255-0.08,0.375-0.134
		c0.075-0.034,0.113-0.095,0.12-0.171c0.008-0.086,0.017-0.172,0.019-0.257c0-0.048-0.001-0.101-0.024-0.143
		c-0.087-0.156-0.104-0.327-0.1-0.498c0.002-0.1-0.007-0.192-0.046-0.286c-0.062-0.148-0.087-0.302-0.076-0.467
		c0.009-0.107-0.037-0.217-0.033-0.326c0.003-0.139-0.076-0.26-0.076-0.396c0.001-0.137-0.031-0.267-0.083-0.392
		c-0.014-0.033-0.028-0.07-0.028-0.106c0.003-0.224-0.09-0.431-0.11-0.649c-0.013-0.122-0.034-0.242-0.086-0.356
		c-0.028-0.064-0.036-0.143-0.039-0.214c-0.006-0.147-0.015-0.294-0.006-0.441c0.004-0.132-0.045-0.238-0.121-0.338
		c-0.038-0.052-0.089-0.085-0.155-0.085c-0.159-0.004-0.317-0.007-0.477-0.009c-0.049,0-0.098,0.002-0.148,0.002
		c-0.115-0.002-0.235-0.113-0.253-0.228c-0.002-0.023-0.007-0.051-0.002-0.071c0.021-0.127-0.002-0.246-0.067-0.355
		c-0.017-0.03-0.031-0.07-0.027-0.105c0.004-0.032,0.03-0.075,0.055-0.085c0.055-0.023,0.118-0.027,0.179-0.042
		c0.094-0.023,0.193-0.037,0.277-0.093c0.096-0.063,0.206-0.072,0.316-0.08c0.366-0.027,0.735-0.046,1.092-0.149
		c0.257-0.016,0.508-0.071,0.76-0.125c0.047-0.01,0.098-0.013,0.146-0.01c0.235,0.009,0.464-0.037,0.694-0.076
		c0.144-0.025,0.29-0.046,0.435-0.064c0.055-0.008,0.129,0.045,0.137,0.1c0.025,0.169,0.052,0.339,0.065,0.508
		c0.012,0.137-0.049,0.235-0.182,0.288c-0.124,0.051-0.246,0.109-0.371,0.159c-0.079,0.031-0.162,0.054-0.245,0.076
		c-0.153,0.041-0.187,0.079-0.197,0.218c-0.007,0.123-0.003,0.244,0.042,0.363c0.053,0.138,0.085,0.283,0.074,0.432
		c-0.012,0.154,0.074,0.283,0.095,0.426c0.021,0.133,0.034,0.268,0.054,0.4c0.004,0.035,0.025,0.072,0.051,0.095
		c0.034,0.031,0.079,0.053,0.124,0.071c0.018,0.009,0.048,0.007,0.071,0.001c0.156-0.037,0.319-0.006,0.474-0.039
		c0.158-0.036,0.314-0.034,0.476-0.051c0.12-0.013,0.244-0.029,0.361-0.062c0.216-0.058,0.43-0.082,0.653-0.056
		c0.134,0.015,0.269,0.002,0.402-0.025c0.18-0.035,0.363-0.06,0.543-0.09c0.109-0.018,0.179-0.101,0.171-0.203
		c-0.012-0.146-0.021-0.293-0.037-0.438c-0.007-0.06-0.032-0.118-0.046-0.178c-0.021-0.095-0.065-0.194-0.055-0.286
		c0.031-0.293-0.129-0.546-0.154-0.825c-0.004-0.062-0.078-0.097-0.141-0.099c-0.171-0.008-0.341-0.009-0.514-0.012
		c-0.048-0.001-0.099-0.001-0.145-0.011c-0.036-0.007-0.076-0.024-0.081-0.066c-0.006-0.154-0.09-0.273-0.168-0.4
		c-0.038-0.06-0.06-0.133-0.08-0.202c-0.028-0.091,0.023-0.167,0.119-0.189c0.192-0.041,0.386-0.065,0.57-0.147
		c0.053-0.024,0.118-0.039,0.179-0.034c0.246,0.011,0.485-0.051,0.731-0.05c0.195,0,0.389-0.036,0.582-0.077
		c0.383-0.081,0.771-0.141,1.153-0.221c0.156-0.035,0.313-0.053,0.472-0.069c0.023-0.002,0.049,0,0.074,0.002
		c0.041,0,0.099,0.046,0.104,0.087c0.007,0.074,0.02,0.147,0.016,0.218c-0.007,0.161-0.023,0.32-0.005,0.479
		c0.011,0.099-0.041,0.179-0.13,0.197c-0.207,0.046-0.374,0.175-0.566,0.255c-0.058,0.025-0.093,0.078-0.104,0.14
		c-0.021,0.122-0.038,0.245,0.013,0.363c0.053,0.126,0.094,0.253,0.09,0.391c0,0.012,0.002,0.026,0.009,0.035
		c0.132,0.184,0.102,0.397,0.108,0.602c0.003,0.1,0.014,0.193,0.055,0.285c0.052,0.115,0.064,0.234,0.071,0.358
		c0.005,0.11,0.017,0.221,0.04,0.328c0.028,0.119,0.057,0.238,0.078,0.357c0.045,0.242,0.093,0.48,0.119,0.724
		c0.006,0.048,0.029,0.094,0.045,0.14c0.015,0.046,0.044,0.092,0.041,0.139c-0.011,0.201,0.057,0.385,0.121,0.571
		c0.014,0.044,0.016,0.097,0.011,0.145c-0.011,0.122,0.049,0.209,0.129,0.29c0.09,0.092,0.19,0.151,0.322,0.157
		c0.171,0.006,0.342,0.015,0.513,0.024c0.078,0.004,0.14,0.038,0.186,0.104c0.035,0.05,0.063,0.112,0.11,0.142
		c0.162,0.097,0.209,0.228,0.152,0.405c-0.015,0.046-0.01,0.097-0.019,0.145c-0.012,0.048-0.037,0.092-0.088,0.11
		c-0.102,0.037-0.207,0.075-0.312,0.106c-0.045,0.014-0.095,0.012-0.143,0.016c-0.293,0.035-0.588,0.026-0.881,0.027
		c-0.173,0-0.341,0.005-0.513,0.039c-0.154,0.03-0.317,0.023-0.476,0.036c-0.061,0.005-0.126,0.005-0.18,0.028
		c-0.271,0.12-0.565,0.149-0.853,0.201c-0.096,0.018-0.193,0.036-0.285,0.07c-0.068,0.025-0.141,0.043-0.212,0.048
		c-0.233,0.015-0.287-0.051-0.301-0.267c-0.007-0.11,0.004-0.223-0.015-0.329c-0.027-0.151,0.008-0.264,0.137-0.35
		c0.052-0.032,0.099-0.075,0.144-0.114c0.059-0.05,0.125-0.076,0.201-0.083c0.074-0.004,0.147-0.009,0.22-0.016
		c0.093-0.01,0.155-0.069,0.201-0.145c0.033-0.054,0.05-0.113,0.037-0.175c-0.03-0.143-0.092-0.281-0.087-0.431
		c0-0.134,0.002-0.268,0-0.401c-0.002-0.048-0.011-0.099-0.029-0.143c-0.056-0.138-0.095-0.278-0.1-0.428
		c-0.001-0.076-0.032-0.143-0.078-0.202c-0.055-0.071-0.123-0.123-0.219-0.11c-0.267,0.039-0.535,0.049-0.807,0.05
		c-0.06,0.001-0.126,0.007-0.179,0.032c-0.135,0.069-0.285,0.073-0.423,0.115c-0.382,0.11-0.772,0.138-1.166,0.122
		c-0.165-0.007-0.313,0.015-0.46,0.087c-0.094,0.046-0.14,0.104-0.131,0.195c0.009,0.11,0.016,0.223,0.048,0.327
		c0.064,0.201,0.101,0.401,0.078,0.614c-0.014,0.133-0.012,0.268,0.076,0.386c0.033,0.047,0.03,0.117,0.048,0.176
		c0.02,0.059,0.044,0.114,0.067,0.171c0.063,0.174,0.184,0.242,0.368,0.237c0.147-0.004,0.294,0.016,0.439,0.037
		c0.044,0.006,0.09,0.04,0.122,0.074c0.085,0.087,0.163,0.183,0.244,0.273c0.034,0.042,0.048,0.09,0.03,0.136
		C38.31,16.623,38.269,16.71,38.217,16.827z"/>
	<path fill-rule="evenodd" clip-rule="evenodd" fill="#522A71" d="M70.45,13.94c-0.066,0.078-0.131,0.167-0.155,0.278
		c-0.021,0.11-0.076,0.206-0.116,0.308c-0.081,0.204-0.171,0.405-0.237,0.614c-0.057,0.172-0.104,0.354-0.123,0.536
		c-0.022,0.191-0.092,0.356-0.199,0.506c-0.123,0.172-0.207,0.358-0.273,0.554c-0.013,0.036-0.019,0.074-0.038,0.106
		c-0.175,0.296-0.248,0.634-0.395,0.943c-0.146,0.308-0.258,0.633-0.39,0.95c-0.046,0.112-0.095,0.225-0.15,0.332
		c-0.111,0.218-0.228,0.432-0.289,0.671c-0.007,0.022-0.022,0.045-0.036,0.064c-0.029,0.042-0.07,0.067-0.124,0.062
		c-0.209-0.009-0.411-0.055-0.6-0.151c-0.065-0.034-0.131-0.068-0.198-0.097c-0.188-0.078-0.324-0.206-0.406-0.396
		c-0.18-0.415-0.368-0.827-0.548-1.241c-0.034-0.08-0.066-0.158-0.117-0.229c-0.174-0.264-0.32-0.547-0.462-0.832
		c-0.038-0.076-0.075-0.154-0.121-0.225c-0.093-0.145-0.191-0.288-0.221-0.461c-0.006-0.036-0.025-0.07-0.043-0.101
		c-0.252-0.491-0.506-0.979-0.755-1.47c-0.128-0.25-0.246-0.506-0.371-0.758c-0.016-0.034-0.031-0.067-0.05-0.099
		c-0.027-0.048-0.122-0.053-0.159-0.004c-0.038,0.048-0.077,0.097-0.101,0.151c-0.083,0.204-0.163,0.407-0.239,0.614
		c-0.19,0.518-0.415,1.021-0.655,1.515c-0.086,0.177-0.172,0.352-0.26,0.527c-0.032,0.068-0.007,0.158,0.057,0.194
		c0.072,0.042,0.149,0.082,0.227,0.12c0.109,0.055,0.221,0.107,0.329,0.163c0.042,0.023,0.094,0.047,0.115,0.085
		c0.087,0.159,0.233,0.25,0.363,0.36c0.057,0.045,0.069,0.144,0.029,0.201c-0.014,0.019-0.025,0.042-0.044,0.058
		c-0.096,0.083-0.157,0.182-0.197,0.302c-0.038,0.115-0.143,0.173-0.263,0.155c-0.19-0.032-0.392-0.009-0.569-0.11
		c-0.26-0.025-0.495-0.133-0.732-0.229c-0.203-0.082-0.415-0.147-0.624-0.214c-0.069-0.023-0.143-0.032-0.214-0.046
		c-0.097-0.019-0.196-0.028-0.29-0.057c-0.151-0.047-0.305-0.085-0.467-0.085c-0.057,0-0.128-0.013-0.172-0.047
		c-0.151-0.124-0.325-0.166-0.511-0.187c-0.022-0.001-0.045-0.018-0.066-0.027c-0.025-0.012-0.05-0.071-0.037-0.094
		c0.034-0.067,0.063-0.133,0.103-0.195c0.062-0.094,0.108-0.188,0.125-0.304c0.01-0.057,0.043-0.112,0.067-0.167
		c0.036-0.071,0.097-0.115,0.177-0.113c0.17,0.002,0.343,0.009,0.513,0.017c0.147,0.006,0.294,0.018,0.438,0.02
		c0.139,0.002,0.232-0.068,0.288-0.19c0.101-0.237,0.224-0.46,0.313-0.703c0.12-0.332,0.273-0.653,0.411-0.98
		c0.088-0.203,0.229-0.377,0.292-0.591c0.063-0.213,0.155-0.412,0.246-0.612c0.097-0.211,0.161-0.437,0.28-0.637
		c0.014-0.021,0.018-0.046,0.025-0.069c0.071-0.234,0.157-0.462,0.264-0.683c0.028-0.06,0.01-0.124-0.034-0.171
		c-0.05-0.053-0.104-0.104-0.163-0.146c-0.121-0.083-0.248-0.159-0.372-0.239c-0.053-0.037-0.111-0.044-0.173-0.055
		c-0.057-0.012-0.114-0.035-0.171-0.058c-0.057-0.025-0.081-0.104-0.052-0.156c0.123-0.211,0.241-0.426,0.306-0.665
		c0.032-0.107,0.078-0.135,0.193-0.124c0.145,0.012,0.289,0.03,0.432,0.074c0.353,0.105,0.707,0.193,1.063,0.287
		c0.022,0.007,0.053,0.005,0.071,0.018c0.165,0.113,0.352,0.157,0.547,0.194c0.056,0.009,0.112,0.051,0.151,0.094
		c0.174,0.18,0.29,0.396,0.342,0.639c0.018,0.085,0.05,0.159,0.091,0.236c0.138,0.258,0.268,0.523,0.396,0.786
		c0.09,0.187,0.168,0.38,0.257,0.569c0.025,0.053,0.062,0.105,0.104,0.147c0.101,0.094,0.178,0.207,0.232,0.329
		c0.188,0.427,0.433,0.822,0.646,1.236c0.193,0.38,0.374,0.768,0.537,1.162c0.078,0.193,0.165,0.384,0.247,0.574
		c0.017,0.04,0.104,0.045,0.128,0.009c0.112-0.176,0.206-0.36,0.283-0.553c0.156-0.398,0.284-0.805,0.462-1.194
		c0.018-0.045,0.029-0.095,0.056-0.136c0.136-0.209,0.197-0.445,0.245-0.684c0.032-0.169,0.071-0.334,0.129-0.497
		c0.035-0.104,0-0.193-0.102-0.25c-0.126-0.075-0.253-0.149-0.369-0.24c-0.035-0.026-0.088-0.042-0.137-0.042
		c-0.121-0.006-0.204-0.071-0.275-0.162c-0.037-0.048-0.072-0.099-0.104-0.149c-0.051-0.09-0.037-0.2,0.033-0.273
		c0.068-0.069,0.137-0.138,0.205-0.209c0.108-0.114,0.243-0.161,0.398-0.139c0.11,0.015,0.219,0.036,0.325,0.059
		c0.155,0.037,0.313,0.069,0.463,0.115c0.117,0.037,0.228,0.092,0.338,0.143c0.091,0.043,0.181,0.064,0.283,0.066
		c0.119,0.005,0.241,0.031,0.359,0.06c0.273,0.064,0.537,0.167,0.813,0.228c0.191,0.042,0.372,0.122,0.545,0.216
		c0.074,0.04,0.097,0.102,0.056,0.184c-0.069,0.143-0.124,0.292-0.241,0.409c-0.049,0.048-0.064,0.129-0.097,0.193
		c-0.028,0.049-0.074,0.062-0.123,0.066c-0.024,0.002-0.05,0-0.072-0.002c-0.025-0.003-0.051-0.008-0.074-0.016
		C70.991,13.779,70.718,13.782,70.45,13.94z"/>
	<path fill-rule="evenodd" clip-rule="evenodd" fill="#522A71" d="M83.897,19.733c-0.069,0.101-0.141,0.198-0.203,0.301
		c-0.063,0.104-0.108,0.218-0.176,0.319c-0.115,0.172-0.224,0.35-0.327,0.53c-0.086,0.146-0.202,0.276-0.31,0.411
		c-0.058,0.069-0.162,0.094-0.232,0.048c-0.136-0.089-0.279-0.148-0.443-0.163c-0.058-0.004-0.117-0.034-0.173-0.06
		c-0.124-0.053-0.195-0.161-0.182-0.29c0.017-0.133,0.02-0.272,0.083-0.393c0.058-0.114,0.073-0.23,0.067-0.355
		c-0.001-0.061,0-0.123,0.004-0.183c0.003-0.104-0.027-0.191-0.102-0.267c-0.042-0.044-0.09-0.091-0.107-0.145
		c-0.083-0.228-0.256-0.391-0.394-0.575c-0.058-0.079-0.135-0.147-0.232-0.175c-0.204-0.059-0.374-0.177-0.546-0.296
		c-0.02-0.014-0.042-0.025-0.062-0.04c-0.192-0.167-0.438-0.209-0.67-0.277c-0.036-0.009-0.074-0.009-0.11-0.007
		c-0.257,0.002-0.514,0.018-0.771,0.01c-0.248-0.008-0.486,0.054-0.728,0.098c-0.058,0.009-0.112,0.042-0.168,0.069
		c-0.085,0.043-0.171,0.095-0.258,0.14c-0.108,0.056-0.216,0.11-0.341,0.13c-0.162,0.026-0.296,0.107-0.385,0.254
		c-0.077,0.126-0.187,0.228-0.313,0.306c-0.052,0.034-0.096,0.076-0.148,0.11c-0.116,0.076-0.189,0.18-0.247,0.308
		c-0.063,0.145-0.159,0.276-0.245,0.409c-0.041,0.062-0.069,0.128-0.075,0.204c-0.005,0.061-0.003,0.13-0.032,0.178
		c-0.09,0.158-0.09,0.329-0.093,0.5c-0.001,0.183,0.011,0.369-0.001,0.55c-0.019,0.25,0.087,0.453,0.222,0.644
		c0.059,0.08,0.121,0.149,0.148,0.249c0.041,0.147,0.138,0.244,0.279,0.319c0.203,0.111,0.396,0.246,0.578,0.389
		c0.109,0.084,0.216,0.156,0.351,0.19c0.13,0.035,0.258,0.078,0.359,0.175c0.025,0.021,0.07,0.032,0.104,0.029
		c0.182-0.02,0.368-0.02,0.538-0.107c0.063-0.033,0.129-0.073,0.177-0.125c0.176-0.188,0.348-0.381,0.519-0.571
		c0.024-0.028,0.045-0.058,0.064-0.09c0.057-0.081,0.045-0.191-0.024-0.269c-0.075-0.083-0.158-0.154-0.267-0.193
		c-0.084-0.029-0.148-0.076-0.194-0.154c-0.023-0.039-0.07-0.066-0.109-0.093c-0.062-0.042-0.126-0.077-0.189-0.115
		c-0.116-0.072-0.153-0.182-0.134-0.313c0.002-0.013,0.002-0.025,0.002-0.037c0.006-0.105,0.051-0.186,0.138-0.248
		c0.138-0.104,0.304-0.154,0.462-0.213c0.043-0.016,0.102-0.008,0.146,0.011c0.124,0.05,0.245,0.105,0.367,0.166
		c0.462,0.23,0.922,0.458,1.381,0.689c0.065,0.032,0.14,0.064,0.184,0.12c0.155,0.186,0.371,0.273,0.569,0.393
		c0.073,0.045,0.16,0.07,0.224,0.124c0.098,0.083,0.196,0.143,0.328,0.145c0.043,0.002,0.094,0.032,0.128,0.062
		c0.123,0.12,0.241,0.241,0.361,0.365c0.037,0.039,0.039,0.09,0.013,0.136c-0.029,0.055-0.065,0.104-0.086,0.161
		c-0.032,0.087-0.083,0.149-0.173,0.177c-0.072,0.023-0.125,0.07-0.176,0.126c-0.047,0.055-0.1,0.108-0.156,0.152
		c-0.025,0.02-0.07,0.016-0.104,0.014c-0.023-0.002-0.049-0.016-0.064-0.032c-0.11-0.104-0.248-0.156-0.391-0.195
		c-0.419-0.12-0.305-0.186-0.66,0.162c-0.21,0.206-0.418,0.41-0.587,0.654c-0.068,0.101-0.157,0.188-0.245,0.273
		c-0.096,0.097-0.195,0.187-0.346,0.184c-0.034-0.001-0.071,0.016-0.104,0.032c-0.188,0.087-0.383,0.072-0.578,0.032
		c-0.202-0.044-0.404-0.097-0.609-0.136c-0.275-0.051-0.549-0.12-0.823-0.179c-0.17-0.039-0.328-0.099-0.478-0.187
		c-0.287-0.164-0.575-0.324-0.864-0.483c-0.043-0.022-0.09-0.045-0.136-0.05c-0.129-0.014-0.229-0.076-0.33-0.149
		c-0.148-0.108-0.3-0.21-0.456-0.308c-0.127-0.08-0.228-0.184-0.322-0.301c-0.158-0.2-0.326-0.396-0.482-0.598
		c-0.145-0.184-0.285-0.37-0.345-0.603c-0.008-0.036-0.027-0.069-0.046-0.101c-0.147-0.269-0.244-0.556-0.298-0.859
		c-0.015-0.071-0.044-0.141-0.065-0.212c-0.051-0.18-0.053-0.351,0.027-0.533c0.113-0.256,0.193-0.526,0.278-0.795
		c0.034-0.105,0.078-0.205,0.134-0.299c0.15-0.252,0.352-0.473,0.495-0.729c0.047-0.083,0.137-0.14,0.213-0.202
		c0.16-0.133,0.338-0.242,0.491-0.385c0.051-0.049,0.119-0.086,0.186-0.118c0.208-0.106,0.405-0.227,0.601-0.352
		c0.224-0.144,0.467-0.217,0.727-0.232c0.136-0.007,0.265-0.037,0.397-0.069c0.273-0.067,0.55-0.12,0.828-0.159
		c0.288-0.039,0.585-0.037,0.876,0.037c0.141,0.037,0.288,0.047,0.432,0.077c0.145,0.031,0.283,0.076,0.428,0.102
		c0.132,0.025,0.269,0.025,0.399,0.053c0.157,0.032,0.304,0.086,0.444,0.167c0.17,0.097,0.35,0.177,0.523,0.265
		c0.067,0.034,0.134,0.063,0.195,0.102c0.331,0.209,0.664,0.417,0.989,0.636c0.143,0.094,0.269,0.211,0.402,0.319
		c0.037,0.032,0.067,0.073,0.106,0.101c0.22,0.157,0.386,0.37,0.566,0.57C83.665,19.354,83.787,19.533,83.897,19.733z"/>
	<path fill-rule="evenodd" clip-rule="evenodd" fill="#522A71" d="M50.999,9.978c-0.03,0.046-0.046,0.064-0.058,0.086
		c-0.095,0.176-0.13,0.36-0.122,0.564c0.019,0.467-0.024,0.93-0.085,1.393c-0.013,0.096-0.019,0.193-0.021,0.292
		c-0.001,0.343-0.002,0.686-0.105,1.02c-0.003,0.012-0.007,0.024-0.007,0.036c-0.003,0.317-0.061,0.635-0.023,0.954
		c0.014,0.099,0.034,0.192,0.092,0.276c0.042,0.06,0.081,0.122,0.12,0.185c0.073,0.123,0.174,0.205,0.318,0.225
		c0.147,0.022,0.272,0.104,0.41,0.154c0.177,0.063,0.351,0.095,0.54,0.053c0.117-0.026,0.243-0.021,0.365-0.022
		c0.258-0.003,0.514-0.004,0.773-0.001c0.129,0.002,0.238-0.041,0.336-0.123c0.085-0.07,0.16-0.154,0.247-0.218
		c0.251-0.179,0.334-0.439,0.375-0.727c0.034-0.278,0.082-0.556,0.128-0.834c0.009-0.044,0.037-0.088,0.066-0.128
		c0.035-0.051,0.056-0.106,0.047-0.17c-0.025-0.196,0.027-0.39,0.021-0.585c-0.005-0.185,0.025-0.367,0.061-0.546
		c0.017-0.071,0.021-0.146,0.023-0.219c0.002-0.183,0.015-0.365,0.03-0.548c0.018-0.218-0.007-0.44-0.022-0.66
		c-0.003-0.042-0.04-0.09-0.072-0.122c-0.073-0.066-0.163-0.112-0.26-0.132c-0.182-0.034-0.333-0.151-0.52-0.176
		c-0.084-0.01-0.146-0.087-0.177-0.172c-0.08-0.222-0.111-0.45-0.073-0.685c0.007-0.041,0.064-0.099,0.099-0.096
		c0.048,0.001,0.099,0.002,0.146,0.01c0.328,0.049,0.659,0.037,0.989,0.033c0.209-0.002,0.416,0.004,0.62,0.054
		c0.228,0.055,0.459,0.072,0.692,0.069c0.221-0.002,0.441,0.01,0.662,0.015c0.137,0.002,0.267,0.03,0.397,0.064
		c0.085,0.023,0.114,0.067,0.104,0.166c-0.007,0.073-0.01,0.149-0.039,0.214c-0.049,0.119-0.063,0.234-0.04,0.36
		c0.007,0.036,0,0.072-0.002,0.109c-0.004,0.073-0.066,0.135-0.145,0.141c-0.063,0.002-0.122,0.01-0.184,0.002
		c-0.197-0.03-0.391,0.005-0.586,0.009c-0.086,0.002-0.145,0.049-0.164,0.122c-0.017,0.071-0.045,0.144-0.046,0.216
		c-0.009,0.294-0.078,0.582-0.078,0.877c-0.002,0.148-0.006,0.299-0.062,0.435c-0.063,0.144-0.074,0.284-0.038,0.429
		c0.024,0.099,0.013,0.192,0.001,0.29c-0.02,0.158-0.02,0.317-0.016,0.476c0.001,0.125-0.012,0.244-0.064,0.358
		c-0.021,0.043-0.046,0.092-0.046,0.139c0.007,0.224-0.078,0.431-0.124,0.645c-0.044,0.204-0.088,0.408-0.127,0.612
		c-0.021,0.115-0.078,0.21-0.16,0.283c-0.139,0.122-0.251,0.267-0.354,0.417c-0.099,0.144-0.228,0.256-0.397,0.312
		c-0.035,0.012-0.08,0.025-0.096,0.051c-0.091,0.142-0.244,0.151-0.382,0.195c-0.116,0.039-0.234,0.078-0.344,0.131
		c-0.136,0.068-0.276,0.094-0.425,0.099c-0.296,0.005-0.589,0.007-0.883,0.009c-0.232,0.002-0.466-0.004-0.697,0.002
		c-0.259,0.007-0.515-0.02-0.77-0.058c-0.06-0.009-0.124-0.021-0.175-0.052c-0.229-0.15-0.499-0.199-0.749-0.291
		c-0.115-0.042-0.231-0.083-0.337-0.145c-0.087-0.048-0.163-0.101-0.214-0.193c-0.033-0.061-0.098-0.11-0.156-0.151
		c-0.323-0.224-0.521-0.546-0.684-0.891c-0.032-0.064-0.053-0.139-0.056-0.209c-0.007-0.221-0.006-0.442,0-0.662
		c0.003-0.072,0.028-0.143,0.045-0.214c0.051-0.228,0.106-0.45,0.091-0.686c-0.012-0.197-0.001-0.393-0.002-0.588
		c-0.002-0.185,0.007-0.367,0.037-0.549c0.018-0.107,0.024-0.22,0.024-0.33c0-0.221,0.028-0.439,0.094-0.65
		c0.014-0.047,0.04-0.099,0.03-0.143c-0.03-0.179,0.032-0.338,0.09-0.501c0.01-0.021,0.011-0.046,0.017-0.07
		c0.012-0.07-0.039-0.165-0.107-0.171c-0.218-0.03-0.419-0.126-0.643-0.143c-0.199-0.014-0.351-0.167-0.397-0.375
		c-0.007-0.032-0.002-0.083,0.019-0.104c0.102-0.11,0.17-0.237,0.225-0.375c0.024-0.061,0.083-0.092,0.147-0.098
		c0.061-0.003,0.122-0.004,0.182,0.006c0.17,0.025,0.34,0.046,0.511-0.007c0.032-0.009,0.071-0.012,0.108-0.009
		c0.342,0.027,0.685-0.007,1.027-0.007c0.271,0,0.536,0.038,0.805,0.071c0.184,0.023,0.362,0.039,0.549,0.033
		c0.237-0.008,0.457,0.065,0.683,0.123c0.053,0.014,0.096,0.083,0.096,0.144c-0.001,0.037,0.003,0.075-0.004,0.109
		c-0.029,0.122-0.022,0.242-0.004,0.364c0.009,0.059,0.001,0.122-0.009,0.183c-0.015,0.097-0.108,0.175-0.206,0.176
		c-0.099,0.001-0.197,0.006-0.294-0.001C51.396,9.913,51.203,9.95,50.999,9.978z"/>
	<path fill-rule="evenodd" clip-rule="evenodd" fill="#522A71" d="M24.386,15.781c0.013,0.143,0.02,0.251,0.034,0.359
		c0.014,0.083,0.117,0.152,0.193,0.127c0.138-0.045,0.273-0.095,0.412-0.146c0.044-0.018,0.061-0.122,0.025-0.162
		c-0.153-0.173-0.342-0.306-0.524-0.447c-0.032-0.024-0.116,0.011-0.12,0.05C24.396,15.646,24.392,15.731,24.386,15.781z
		 M22.81,13.074c0.048-0.051,0.076-0.099,0.117-0.12c0.216-0.11,0.428-0.241,0.676-0.273c0.115-0.014,0.211,0.011,0.308,0.083
		c0.267,0.197,0.542,0.379,0.812,0.571c0.179,0.127,0.358,0.256,0.509,0.419c0.308,0.336,0.663,0.619,1.02,0.898
		c0.096,0.076,0.19,0.154,0.283,0.235c0.128,0.115,0.257,0.228,0.401,0.322c0.041,0.028,0.08,0.059,0.116,0.092
		c0.425,0.388,0.88,0.739,1.284,1.154c0.127,0.131,0.268,0.248,0.419,0.355c0.109,0.077,0.211,0.167,0.311,0.256
		c0.138,0.124,0.29,0.227,0.443,0.329c0.096,0.064,0.199,0.094,0.313,0.074c0.06-0.009,0.122-0.012,0.182-0.03
		c0.095-0.028,0.193-0.042,0.29-0.019c0.112,0.025,0.221-0.011,0.329-0.01c0.092,0.001,0.172,0.03,0.225,0.104
		c0.076,0.108,0.161,0.214,0.184,0.354c0.016,0.095,0.062,0.185,0.092,0.278c0.028,0.085-0.004,0.154-0.085,0.173
		c-0.287,0.068-0.552,0.199-0.832,0.291c-0.126,0.041-0.25,0.096-0.377,0.133c-0.308,0.085-0.588,0.244-0.892,0.335
		c-0.083,0.025-0.161,0.064-0.237,0.104c-0.11,0.055-0.221,0.102-0.345,0.116c-0.048,0.005-0.099,0.017-0.143,0.039
		c-0.145,0.077-0.301,0.098-0.462,0.098c-0.071,0-0.145,0.021-0.217,0.03c-0.084,0.01-0.169,0.021-0.254,0.025
		c-0.093,0.004-0.144-0.037-0.15-0.12c-0.001-0.013-0.003-0.025-0.003-0.037c0.011-0.14-0.022-0.264-0.1-0.384
		c-0.051-0.078-0.026-0.167,0.045-0.229c0.037-0.032,0.075-0.063,0.116-0.088c0.155-0.099,0.312-0.194,0.468-0.292
		c0.06-0.039,0.071-0.147,0.018-0.193c-0.114-0.092-0.235-0.176-0.342-0.274c-0.317-0.289-0.65-0.56-0.97-0.845
		c-0.138-0.123-0.284-0.129-0.444-0.062c-0.237,0.096-0.471,0.205-0.71,0.294c-0.159,0.062-0.327,0.101-0.49,0.152
		c-0.051,0.016-0.09,0.058-0.092,0.106c-0.005,0.232-0.004,0.464-0.004,0.697c0.086,0.31,0.084,0.63,0.105,0.946
		c0.002,0.025,0.003,0.048,0.007,0.073c0.013,0.108,0.138,0.195,0.244,0.166c0.154-0.043,0.305-0.094,0.458-0.141
		c0.044-0.015,0.091-0.036,0.139-0.045c0.072-0.016,0.146-0.002,0.209,0.043c0.008,0.008,0.02,0.016,0.025,0.025
		c0.07,0.12,0.247,0.133,0.284,0.276c0.032,0.12,0.09,0.227,0.132,0.34c0.027,0.073-0.012,0.149-0.093,0.169
		c-0.241,0.061-0.463,0.153-0.673,0.29c-0.099,0.065-0.221,0.102-0.337,0.141c-0.289,0.097-0.581,0.184-0.872,0.278
		c-0.209,0.07-0.418,0.136-0.621,0.228c-0.292,0.133-0.604,0.198-0.917,0.264c-0.076,0.016-0.143-0.016-0.196-0.076
		c-0.052-0.054-0.084-0.118-0.103-0.192c-0.021-0.095-0.037-0.192-0.069-0.284c-0.022-0.067-0.094-0.12-0.058-0.201
		c0.032-0.07,0.098-0.107,0.159-0.151c0.079-0.056,0.161-0.104,0.255-0.138c0.164-0.06,0.306-0.156,0.444-0.257
		c0.071-0.053,0.114-0.122,0.138-0.21c0.076-0.277,0.073-0.553,0.034-0.837c-0.048-0.363-0.101-0.725-0.099-1.098
		c0.001-0.179-0.038-0.363-0.078-0.54c-0.06-0.253-0.081-0.508-0.076-0.766c0.002-0.269,0.007-0.54,0.008-0.809
		c0-0.061-0.006-0.122-0.01-0.182c-0.006-0.062-0.025-0.123-0.021-0.183c0.021-0.236-0.029-0.463-0.065-0.693
		c-0.015-0.097-0.04-0.195-0.035-0.292c0.015-0.237-0.021-0.462-0.095-0.685c-0.031-0.094-0.039-0.191-0.035-0.29
		C22.813,13.29,22.81,13.192,22.81,13.074z"/>
	<path fill-rule="evenodd" clip-rule="evenodd" fill="#522A71" d="M13.747,21.696c-0.008-0.021-0.01-0.054-0.025-0.063
		c-0.248-0.132-0.497-0.263-0.747-0.392c-0.016-0.009-0.055-0.005-0.068,0.007c-0.024,0.025-0.054,0.067-0.047,0.091
		c0.064,0.236,0.133,0.47,0.263,0.679c0.021,0.034,0.095,0.055,0.134,0.037c0.165-0.081,0.324-0.168,0.462-0.292
		C13.735,21.748,13.738,21.719,13.747,21.696z M19.996,22.19c0.065,0.115,0.117,0.197,0.162,0.282
		c0.044,0.084,0.02,0.219-0.064,0.264c-0.25,0.134-0.437,0.353-0.674,0.509c-0.296,0.198-0.605,0.361-0.936,0.503
		c-0.267,0.117-0.527,0.254-0.742,0.462c-0.09,0.085-0.187,0.158-0.288,0.246c-0.087,0.012-0.184,0.021-0.279,0.037
		c-0.084,0.016-0.166,0.046-0.249,0.06c-0.064,0.009-0.122-0.01-0.164-0.063c-0.124-0.155-0.207-0.333-0.278-0.515
		c-0.012-0.031-0.002-0.075,0.009-0.107c0.025-0.069,0.055-0.138,0.122-0.179c0.117-0.071,0.202-0.177,0.3-0.269
		c0.071-0.069,0.059-0.188-0.025-0.216c-0.201-0.064-0.367-0.196-0.555-0.283c-0.2-0.092-0.398-0.189-0.593-0.291
		c-0.184-0.098-0.366-0.201-0.547-0.3c-0.084-0.046-0.165-0.044-0.244,0.011c-0.401,0.278-0.806,0.558-1.207,0.837
		c-0.066,0.046-0.087,0.123-0.058,0.194c0.129,0.304,0.262,0.605,0.382,0.914c0.062,0.159,0.12,0.319,0.207,0.467
		c0.037,0.063,0.083,0.122,0.135,0.174c0.034,0.035,0.085,0.053,0.135,0.035c0.194-0.074,0.39-0.143,0.578-0.23
		c0.107-0.049,0.209-0.066,0.319-0.037c0.083,0.021,0.167,0.042,0.246,0.076c0.043,0.018,0.096,0.051,0.111,0.087
		c0.045,0.115,0.117,0.214,0.176,0.322c0.037,0.071,0.016,0.183-0.05,0.234c-0.154,0.122-0.305,0.246-0.467,0.356
		c-0.313,0.216-0.63,0.423-0.984,0.568c-0.011,0.003-0.025,0.007-0.036,0.011c-0.085,0.048-0.179,0.085-0.254,0.146
		c-0.188,0.16-0.437,0.226-0.611,0.401c-0.035,0.037-0.074,0.068-0.113,0.097c-0.078,0.057-0.186,0.048-0.264,0.119
		c-0.069,0.067-0.156,0.117-0.237,0.172c-0.03,0.021-0.064,0.039-0.099,0.046c-0.034,0.005-0.08,0.005-0.102-0.014
		c-0.056-0.043-0.104-0.101-0.153-0.155c-0.029-0.169-0.159-0.271-0.262-0.39c-0.046-0.058-0.042-0.147,0.009-0.204
		c0.009-0.01,0.015-0.02,0.024-0.027c0.008-0.011,0.016-0.02,0.027-0.025c0.093-0.063,0.164-0.143,0.211-0.247
		c0.041-0.089,0.103-0.164,0.197-0.21c0.063-0.031,0.115-0.088,0.168-0.142c0.074-0.073,0.097-0.16,0.083-0.267
		c-0.058-0.459-0.076-0.54-0.327-1.043c-0.136-0.273-0.257-0.553-0.333-0.851c-0.005-0.024-0.014-0.048-0.023-0.069
		c-0.141-0.288-0.209-0.6-0.349-0.887c-0.052-0.108-0.083-0.228-0.115-0.346c-0.057-0.201-0.149-0.387-0.195-0.592
		c-0.027-0.13-0.085-0.255-0.134-0.379c-0.098-0.25-0.21-0.497-0.291-0.751c-0.043-0.131-0.095-0.255-0.167-0.368
		c-0.207-0.32-0.354-0.669-0.526-1.007c-0.021-0.039-0.021-0.094-0.016-0.143c0.004-0.033,0.023-0.076,0.049-0.092
		c0.072-0.044,0.149-0.092,0.23-0.115c0.171-0.046,0.312-0.138,0.437-0.26c0.026-0.025,0.054-0.048,0.084-0.071
		c0.064-0.048,0.136-0.053,0.208-0.023c0.103,0.042,0.204,0.083,0.301,0.133c0.461,0.232,0.92,0.462,1.378,0.699
		c0.13,0.068,0.25,0.152,0.377,0.228c0.042,0.025,0.083,0.054,0.124,0.074c0.763,0.363,1.51,0.756,2.264,1.133
		c0.582,0.29,1.159,0.586,1.737,0.88c0.032,0.016,0.065,0.033,0.098,0.051c0.15,0.083,0.301,0.163,0.451,0.246
		c0.159,0.007,0.318,0.008,0.476,0.025c0.117,0.014,0.219,0.002,0.316-0.065c0.028-0.02,0.067-0.041,0.101-0.038
		c0.13,0.009,0.219-0.144,0.342-0.101c0.1,0.033,0.179,0.122,0.272,0.182C19.882,22.135,19.937,22.16,19.996,22.19z"/>
	<path fill-rule="evenodd" clip-rule="evenodd" fill="#522A71" d="M53.191,71.718c0.03,0.02,0.058,0.007,0.085-0.007
		c-0.007-0.005-0.018-0.015-0.024-0.012c-0.021,0.005-0.039,0.015-0.058,0.024C53.194,71.725,53.191,71.718,53.191,71.718z"/>
</g>
</svg>
