<svg height="512pt" viewBox="0 -25 512 512" width="512pt" xmlns="http://www.w3.org/2000/svg"><path d="m220.074219 98.625-87.597657-87.597656c-1.949218-1.949219-5.109374-1.949219-7.054687 0l-87.597656 87.597656c-1.949219 1.949219-1.949219 5.109375 0 7.058594l32.8125 32.808594c1.949219 1.949218 5.109375 1.949218 7.058593 0l23.0625-23.0625v149.078124h56.382813v-149.078124l23.0625 23.0625c1.949219 1.949218 5.109375 1.949218 7.058594 0l32.8125-32.808594c1.949219-1.949219 1.949219-5.109375 0-7.058594zm0 0" fill="#bdebff"/><path d="m128.949219 264.507812v-254.941406c-1.277344 0-2.554688.488282-3.527344 1.460938l-87.597656 87.597656c-1.949219 1.949219-1.949219 5.109375 0 7.058594l32.8125 32.808594c1.949219 1.949218 5.109375 1.949218 7.058593 0l23.0625-23.0625v149.078124zm0 0" fill="#92d8ff"/><path d="m128.949219 211.382812c-67.074219 0-121.449219 54.375-121.449219 121.449219s54.375 121.449219 121.449219 121.449219 121.449219-54.375 121.449219-121.449219-54.375-121.449219-121.449219-121.449219zm0 0" fill="#bdebff"/><path d="m128.949219 353.148438c-9.5 0-17.199219-7.699219-17.199219-17.199219v-9.925781c0-1.640626 1.332031-2.972657 2.972656-2.972657h28.453125c1.640625 0 2.972657 1.332031 2.972657 2.972657v9.925781c0 9.5-7.699219 17.199219-17.199219 17.199219zm0 0" fill="#444346"/><path d="m47.5 332.832031c0-60.261719 43.890625-110.261719 101.449219-119.800781-6.507813-1.078125-13.1875-1.648438-20-1.648438-67.074219 0-121.449219 54.375-121.449219 121.449219s54.375 121.449219 121.449219 121.449219c6.8125 0 13.492187-.570312 20-1.648438-57.558594-9.539062-101.449219-59.539062-101.449219-119.800781zm0 0" fill="#92d8ff"/><path d="m476.082031 322.503906h-59.847656c-2.757813 0-4.992187-2.234375-4.992187-4.992187v-115.25c0-2.753907-2.234376-4.988281-4.992188-4.988281h-46.398438c-2.757812 0-4.992187 2.234374-4.992187 4.988281v115.25c0 2.753906-2.234375 4.992187-4.992187 4.992187h-59.847657c-2.753906 0-4.992187 2.230469-4.992187 4.988282v46.402343c0 2.757813 2.234375 4.992188 4.992187 4.992188h59.847657c2.757812 0 4.992187 2.234375 4.992187 4.992187v65.410156c0 2.757813 2.234375 4.992188 4.992187 4.992188h46.402344c2.753906 0 4.988282-2.234375 4.988282-4.992188v-65.414062c0-2.753906 2.234374-4.988281 4.992187-4.988281h59.847656c2.757813 0 4.992188-2.234375 4.992188-4.992188v-46.402343c-.003907-2.753907-2.238281-4.988282-4.992188-4.988282zm0 0" fill="#ffa5b5"/><path d="m383.050781 197.273438h-23.199219c-2.757812 0-4.992187 2.234374-4.992187 4.988281v115.25c0 2.753906-2.234375 4.992187-4.988281 4.992187h-59.847656c-2.757813 0-4.992188 2.230469-4.992188 4.988282v46.402343c0 2.753907 2.234375 4.992188 4.992188 4.992188h59.847656c2.753906 0 4.988281 2.230469 4.988281 4.988281v65.414062c0 2.757813 2.234375 4.992188 4.992187 4.992188h23.199219zm0 0" fill="#ff8da3"/><path d="m383.050781 250.398438c67.074219 0 121.449219-54.375 121.449219-121.449219s-54.375-121.449219-121.449219-121.449219-121.449219 54.375-121.449219 121.449219 54.375 121.449219 121.449219 121.449219zm0 0" fill="#ffa5b5"/><path d="m301.601562 128.949219c0-60.261719 43.890626-110.261719 101.449219-119.800781-6.507812-1.078126-13.1875-1.648438-20-1.648438-67.074219 0-121.449219 54.375-121.449219 121.449219s54.375 121.449219 121.449219 121.449219c6.8125 0 13.492188-.570313 20-1.652344-57.558593-9.535156-101.449219-59.535156-101.449219-119.796875zm0 0" fill="#ff8da3"/><path d="m198.316406 352.835938h-11.355468c-4.140626 0-7.5-3.355469-7.5-7.5 0-4.140626 3.359374-7.5 7.5-7.5h11.355468c4.140625 0 7.5 3.359374 7.5 7.5 0 4.144531-3.359375 7.5-7.5 7.5zm0 0" fill="#f46262"/><path d="m70.9375 352.835938h-11.355469c-4.140625 0-7.5-3.355469-7.5-7.5 0-4.140626 3.359375-7.5 7.5-7.5h11.355469c4.140625 0 7.5 3.359374 7.5 7.5 0 4.144531-3.359375 7.5-7.5 7.5zm0 0" fill="#f46262"/><path d="m143.175781 315.550781h-28.453125c-5.773437 0-10.472656 4.699219-10.472656 10.472657v9.925781c0 13.621093 11.082031 24.699219 24.699219 24.699219 13.621093 0 24.699219-11.078126 24.699219-24.699219v-9.925781c0-5.773438-4.699219-10.472657-10.472657-10.472657zm-4.527343 20.398438c0 5.351562-4.351563 9.699219-9.699219 9.699219-5.347657 0-9.699219-4.351563-9.699219-9.699219v-5.398438h19.398438zm0 0"/><path d="m192.640625 305.015625c-4.144531 0-7.5 3.355469-7.5 7.5v11.355469c0 4.144531 3.355469 7.5 7.5 7.5 4.140625 0 7.5-3.355469 7.5-7.5v-11.355469c0-4.144531-3.359375-7.5-7.5-7.5zm0 0"/><path d="m65.261719 305.015625c-4.144531 0-7.5 3.355469-7.5 7.5v11.355469c0 4.144531 3.355469 7.5 7.5 7.5 4.140625 0 7.5-3.355469 7.5-7.5v-11.355469c0-4.144531-3.359375-7.5-7.5-7.5zm0 0"/><path d="m164.640625 208.910156v-75.375l10.261719 10.265625c4.871094 4.867188 12.792968 4.863281 17.664062 0l32.8125-32.8125c2.359375-2.359375 3.65625-5.496093 3.65625-8.835937 0-3.335938-1.296875-6.472656-3.65625-8.832032l-33.898437-33.894531c-2.929688-2.929687-7.679688-2.929687-10.605469 0-2.929688 2.929688-2.929688 7.675781 0 10.605469l32.121094 32.121094-29.261719 29.265625-21.289063-21.289063c-2.144531-2.148437-5.371093-2.789062-8.171874-1.625-2.804688 1.15625-4.632813 3.894532-4.632813 6.925782v90.121093c-6.738281-1.089843-13.648437-1.667969-20.691406-1.667969s-13.953125.578126-20.691407 1.667969v-90.121093c0-3.03125-1.828124-5.769532-4.628906-6.925782-2.804687-1.164062-6.027344-.523437-8.175781 1.625l-21.289063 21.289063-29.261718-29.265625 84.046875-84.046875 32.125 32.125c2.929687 2.929687 7.675781 2.929687 10.605469 0 2.929687-2.929688 2.929687-7.675781 0-10.605469l-33.898438-33.898438c-2.359375-2.359374-5.496094-3.660156-8.832031-3.660156-3.339844 0-6.476563 1.300782-8.832031 3.660156l-87.59375 87.59375c-2.363282 2.359376-3.660157 5.496094-3.660157 8.832032 0 3.339844 1.296875 6.476562 3.65625 8.835937l32.8125 32.808594c4.867188 4.871094 12.792969 4.871094 17.664063.003906l10.261718-10.265625v75.375c-53.796874 15.519532-93.257812 65.199219-93.257812 123.921875 0 71.101563 57.847656 128.949219 128.949219 128.949219 71.101562 0 128.949219-57.847656 128.949219-128.949219 0-58.722656-39.460938-108.402343-93.257813-123.921875zm-35.691406 237.871094c-62.832031 0-113.949219-51.117188-113.949219-113.949219s51.117188-113.949219 113.949219-113.949219 113.949219 51.117188 113.949219 113.949219-51.117188 113.949219-113.949219 113.949219zm0 0"/><path d="m476.082031 315.003906h-57.339843v-62.132812c53.796874-15.519532 93.257812-65.195313 93.257812-123.921875 0-29.394531-9.636719-57.085938-27.867188-80.070313-2.570312-3.246094-7.289062-3.789062-10.535156-1.214844-3.246094 2.570313-3.789062 7.289063-1.214844 10.535157 16.105469 20.308593 24.617188 44.773437 24.617188 70.75 0 62.832031-51.117188 113.949219-113.949219 113.949219s-113.949219-51.117188-113.949219-113.949219 51.117188-113.949219 113.949219-113.949219c25.421875 0 49.472657 8.1875 69.546875 23.675781 3.28125 2.53125 7.988282 1.925781 10.519532-1.355469 2.53125-3.277343 1.925781-7.988281-1.355469-10.519531-22.722657-17.53125-49.941407-26.800781-78.710938-26.800781-71.101562 0-128.949219 57.847656-128.949219 128.949219 0 58.726562 39.460938 108.402343 93.257813 123.921875v62.132812h-57.335937c-6.886719 0-12.492188 5.601563-12.492188 12.488282v46.402343c0 6.886719 5.605469 12.492188 12.492188 12.492188h57.335937v62.902343c0 6.890626 5.605469 12.492188 12.492187 12.492188h46.402344c6.886719 0 12.488282-5.605469 12.488282-12.492188v-62.902343h57.339843c6.886719 0 12.488281-5.605469 12.488281-12.492188v-46.402343c0-6.886719-5.601562-12.488282-12.488281-12.488282zm-2.511719 56.382813h-57.335937c-6.890625 0-12.492187 5.601562-12.492187 12.488281v62.90625h-41.382813v-62.90625c0-6.886719-5.605469-12.488281-12.492187-12.488281h-57.335938v-41.382813h57.335938c6.890624 0 12.492187-5.605468 12.492187-12.492187v-61.28125c6.738281 1.09375 13.648437 1.667969 20.691406 1.667969s13.953125-.574219 20.691407-1.667969v61.28125c0 6.886719 5.601562 12.492187 12.488281 12.492187h57.339843zm0 0"/><path d="m393.308594 135.824219c-2.109375 3.664062-6.039063 5.941406-10.257813 5.941406s-8.148437-2.277344-10.257812-5.941406c-2.0625-3.589844-6.648438-4.828125-10.238281-2.765625-3.589844 2.066406-4.828126 6.652344-2.765626 10.242187 4.777344 8.304688 13.6875 13.464844 23.261719 13.464844s18.484375-5.160156 23.261719-13.464844c2.0625-3.589843.828125-8.175781-2.765625-10.238281-3.585937-2.066406-8.171875-.828125-10.238281 2.761719zm0 0"/><path d="m446.738281 101.132812c-4.140625 0-7.5 3.355469-7.5 7.5v11.355469c0 4.144531 3.359375 7.5 7.5 7.5 4.144531 0 7.5-3.355469 7.5-7.5v-11.355469c0-4.140624-3.355469-7.5-7.5-7.5zm0 0"/><path d="m311.859375 108.632812v11.355469c0 4.144531 3.359375 7.5 7.5 7.5 4.144531 0 7.5-3.355469 7.5-7.5v-11.355469c0-4.144531-3.355469-7.5-7.5-7.5-4.140625 0-7.5 3.359376-7.5 7.5zm0 0"/><g fill="#eaeaea"><path d="m452.417969 148.953125h-11.355469c-4.140625 0-7.5-3.355469-7.5-7.5 0-4.140625 3.359375-7.5 7.5-7.5h11.355469c4.144531 0 7.5 3.359375 7.5 7.5 0 4.144531-3.355469 7.5-7.5 7.5zm0 0"/><path d="m325.039062 148.953125h-11.355468c-4.144532 0-7.5-3.355469-7.5-7.5 0-4.140625 3.355468-7.5 7.5-7.5h11.355468c4.144532 0 7.5 3.359375 7.5 7.5 0 4.144531-3.355468 7.5-7.5 7.5zm0 0"/></g></svg>